<?xml version="1.0" standalone="no"?>
<!DOCTYPE svg PUBLIC "-//W3C//DTD SVG 1.1//EN" "http://www.w3.org/Graphics/SVG/1.1/DTD/svg11.dtd" >
<!--
Created with mf2outline.
-->
<svg xmlns="http://www.w3.org/2000/svg" xmlns:xlink="http://www.w3.org/1999/xlink" version="1.1">
<metadata>
Created by FontForge 20201107 at Wed Jan 24 02:39:44 2024
 By 
Copyright (c) 2024, Metaflop (http://www.metaflop.com), Simon Egli, Marco Mueller, Alexis Reigel, with Reserved Font Name Bespoke. Dual licensed under the GPL v3 (http://www.gnu.org/copyleft/gpl.html) and the OFL v1.1 (http://scripts.sil.org/OFL_web).
</metadata>
<defs>
<font id="Bespoke-b9f2m8h722" horiz-adv-x="288" >
  <font-face 
    font-family="Bespoke"
    font-weight="500"
    font-stretch="normal"
    units-per-em="1000"
    panose-1="2 0 5 3 0 0 0 0 0 0"
    ascent="800"
    descent="-200"
    x-height="585"
    cap-height="900"
    bbox="-120 -313 1267 1288"
    underline-thickness="50"
    underline-position="-100"
    unicode-range="U+0020-FB04"
  />
    <missing-glyph />
    <glyph glyph-name="fi" unicode="fi" horiz-adv-x="644" 
d="M48 543v42h112v207c0 66 11 132 52 183c36 44 92 65 149 65s112 -21 148 -65c15 -18 26 -38 34 -60l-62 -22c-5 18 -13 35 -23 51c-21 33 -57 54 -97 54s-77 -21 -98 -54c-29 -45 -34 -99 -34 -152v-207h333v-585h-69v543h-264v-543h-69v543h-112z" />
    <glyph glyph-name="guillemotright" unicode="&#x3e;&#x3e;" horiz-adv-x="644" 
d="M322 292l-185 -292h-75l185 292l-185 293h75zM582 292l-185 -292h-75l185 292l-185 293h75z" />
    <glyph glyph-name="guillemotleft" unicode="&#x3c;&#x3c;" horiz-adv-x="644" 
d="M137 292l185 -292h-75l-185 292l185 293h75zM397 292l185 -292h-75l-185 292l185 293h75z" />
    <glyph glyph-name="quotedblright" unicode="&#x2019;&#x2019;" horiz-adv-x="630" 
d="M114 608l104 292h71l-122 -292h-53zM454 900h72l-123 -292h-53z" />
    <glyph glyph-name="exclamdown" unicode="&#x21;&#x2018;" horiz-adv-x="370" 
d="M151 -300v678h69v-678h-69zM139 560c0 28 18 46 46 46s46 -18 46 -46c0 -13 -3 -26 -12 -35s-21 -12 -34 -12s-25 3 -34 12s-12 22 -12 35z" />
    <glyph glyph-name="fl" unicode="fl" horiz-adv-x="678" 
d="M367 895c0 49 -17 103 -69 103c-20 0 -40 -10 -51 -27c-15 -22 -18 -49 -18 -76v-310h123v-42h-123v-543h-69v543h-112v42h112v310c0 39 9 79 36 107c26 27 64 38 102 38s76 -11 102 -38c27 -28 36 -68 36 -107h-69zM527 0v1030h69v-1030h-69z" />
    <glyph glyph-name="questiondown" unicode="&#x3f;&#x2018;" horiz-adv-x="589" 
d="M336 -268c55 0 108 23 139 66l43 -42c-47 -48 -115 -66 -182 -66c-68 0 -136 18 -183 66c-48 50 -64 121 -64 190s16 139 64 189c39 40 92 59 148 64v179h69v-219h-34c-50 0 -100 -18 -132 -56c-36 -43 -46 -100 -46 -157s10 -115 46 -158c32 -38 82 -56 132 -56z
M336 606c28 0 46 -18 46 -46c0 -13 -3 -26 -12 -35s-21 -12 -34 -12s-26 3 -35 12s-12 22 -12 35s3 25 12 34s22 12 35 12z" />
    <glyph glyph-name="endash" unicode="&#x2d;&#x2d;" horiz-adv-x="644" 
d="M41 272v42h562v-42h-562z" />
    <glyph glyph-name="emdash" unicode="&#x2013;&#x2d;" horiz-adv-x="1123" 
d="M41 272v42h1041v-42h-1041z" />
    <glyph glyph-name="quotedblleft" unicode="&#x2018;&#x2018;" horiz-adv-x="630" 
d="M105 608l122 292h53l-104 -292h-71zM463 900h53l-104 -292h-71z" />
    <glyph glyph-name="ring" unicode="&#x2da;" 
d="M144 886c-19 0 -39 -6 -52 -20c-14 -15 -18 -36 -18 -56s4 -41 18 -56c13 -14 33 -20 52 -20s38 6 51 20c14 15 18 36 18 56s-4 41 -18 56c-13 14 -32 20 -51 20zM144 914c31 0 62 -6 85 -27c21 -19 30 -48 30 -77s-9 -58 -30 -77c-23 -21 -54 -27 -85 -27s-63 6 -86 27
c-21 19 -30 48 -30 77s9 58 30 77c23 21 55 27 86 27z" />
    <glyph glyph-name="rcaron" unicode="&#x159;" horiz-adv-x="404" 
d="M151 511c31 55 101 84 168 84c40 0 81 -6 117 -22l-20 -46c-28 18 -62 26 -97 26c-46 0 -93 -14 -124 -49c-33 -37 -44 -88 -44 -138v-366h-69v585h69v-74zM377 892h65l-132 -180h-88l-133 180h66l111 -129z" />
    <glyph glyph-name="Eng" unicode="&#x14a;" horiz-adv-x="856" 
d="M96 0v900h100l495 -861v861h69v-1034c0 -49 -15 -98 -52 -130c-40 -35 -95 -46 -149 -46c-64 0 -131 18 -167 65l50 39c5 -10 11 -19 19 -27c25 -26 62 -35 98 -35s73 9 98 35c26 26 34 63 34 99v134h-31l-495 861v-861h-69z" />
    <glyph glyph-name="Q" unicode="Q" horiz-adv-x="959" 
d="M480 868c-98 0 -196 -34 -259 -109c-71 -85 -90 -198 -90 -309s19 -224 90 -309c63 -75 161 -109 259 -109c86 0 171 26 233 83l-133 144h88l88 -95c57 82 72 185 72 286c0 111 -19 224 -90 309c-63 75 -160 109 -258 109zM480 910c116 0 231 -35 309 -120
c83 -91 108 -217 108 -340c0 -119 -24 -241 -100 -331l110 -119h-88l-68 74c-75 -60 -173 -84 -271 -84c-116 0 -232 35 -310 120c-83 91 -108 217 -108 340s25 249 108 340c78 85 194 120 310 120z" />
    <glyph glyph-name="Abreve" unicode="&#x102;" horiz-adv-x="760" 
d="M14 0l316 900h100l317 -900h-73l-108 307h-399l-108 -307h-45zM380 1031c56 0 137 12 137 72h55c0 -34 -20 -64 -50 -81c-43 -24 -93 -28 -142 -28s-99 4 -142 28c-30 17 -50 47 -50 81h55c0 -60 81 -72 137 -72zM551 349l-185 525l-185 -525h370z" />
    <glyph glyph-name="i" unicode="i" horiz-adv-x="260" 
d="M96 0v585h69v-585h-69zM130 751c-28 0 -48 20 -48 48c0 13 4 27 13 36s22 12 35 12s27 -3 36 -12s12 -23 12 -36s-3 -26 -12 -35s-23 -13 -36 -13z" />
    <glyph glyph-name="quoteright" unicode="&#x2019;" horiz-adv-x="349" 
d="M193 900h71l-123 -292h-53z" />
    <glyph glyph-name="Gbreve" unicode="&#x11e;" horiz-adv-x="980" 
d="M897 0h-69v184c-16 -36 -37 -68 -65 -96c-74 -73 -179 -98 -283 -98c-116 0 -232 35 -310 120c-83 91 -108 217 -108 340s25 249 108 340c78 85 194 120 310 120s231 -35 309 -120c27 -29 47 -62 63 -97l-59 -27c-13 33 -31 65 -55 93c-63 75 -160 109 -258 109
s-196 -34 -259 -109c-71 -85 -90 -198 -90 -309s19 -224 90 -309c63 -75 161 -109 259 -109c94 0 190 22 258 87c66 63 90 155 90 247v63h-348v42h417v-471zM480 1031c56 0 136 12 136 72h55c0 -34 -20 -64 -50 -81c-43 -24 -92 -28 -141 -28s-99 4 -142 28
c-30 17 -50 47 -50 81h55c0 -60 81 -72 137 -72z" />
    <glyph glyph-name="Ohungarumlaut" unicode="&#x150;" horiz-adv-x="959" 
d="M325 967l113 180h83l-134 -180h-62zM643 1147h84l-134 -180h-62zM480 868c-98 0 -196 -34 -259 -109c-71 -85 -90 -198 -90 -309s19 -224 90 -309c63 -75 161 -109 259 -109s195 34 258 109c71 85 90 198 90 309s-19 224 -90 309c-63 75 -160 109 -258 109zM480 910
c116 0 231 -35 309 -120c83 -91 108 -217 108 -340s-25 -249 -108 -340c-78 -85 -193 -120 -309 -120s-232 35 -310 120c-83 91 -108 217 -108 340s25 249 108 340c78 85 194 120 310 120z" />
    <glyph glyph-name="racute" unicode="&#x155;" horiz-adv-x="404" 
d="M151 511c31 55 101 84 168 84c40 0 81 -6 117 -22l-20 -46c-28 18 -62 26 -97 26c-46 0 -93 -14 -124 -49c-33 -37 -44 -88 -44 -138v-366h-69v585h69v-74zM336 892h86l-145 -180h-64z" />
    <glyph glyph-name="udieresis" unicode="&#xfc;" horiz-adv-x="651" 
d="M569 585v-585h-69v69c-6 -9 -13 -17 -21 -25c-41 -40 -99 -54 -157 -54c-66 0 -133 12 -183 54c-44 38 -64 96 -64 154v387h69v-387c0 -46 13 -92 46 -123c35 -33 84 -43 132 -43s96 10 131 43c33 31 47 77 47 123v387h69zM247 799c0 -28 -20 -48 -48 -48
c-13 0 -27 4 -36 13s-12 22 -12 35s3 27 12 36s23 12 36 12s26 -3 35 -12s13 -23 13 -36zM445 751c-28 0 -48 20 -48 48c0 13 4 27 13 36s22 12 35 12s27 -3 36 -12s12 -23 12 -36s-3 -26 -12 -35s-23 -13 -36 -13z" />
    <glyph glyph-name="slash" unicode="/" horiz-adv-x="514" 
d="M27 -45l386 990h73l-385 -990h-74z" />
    <glyph glyph-name="asciitilde" unicode="~" horiz-adv-x="671" 
d="M124 205h-69c0 44 11 88 41 119s73 42 116 42c93 0 154 -105 247 -105c26 0 51 11 66 31c19 25 23 57 23 88h68c0 -44 -10 -88 -40 -119s-74 -42 -117 -42c-93 0 -154 105 -247 105c-26 0 -50 -11 -65 -31c-19 -25 -23 -57 -23 -88z" />
    <glyph glyph-name="section" unicode="&#xa7;" horiz-adv-x="651" 
d="M92 -182l62 25c7 -23 19 -45 36 -63c34 -35 83 -48 132 -48s97 13 131 48c35 36 47 86 47 136s-12 99 -47 135c-34 35 -82 48 -131 48c-65 0 -132 11 -183 52c-44 36 -64 92 -64 149s20 113 64 149c20 16 43 28 67 36c-24 9 -47 21 -67 38c-45 40 -64 100 -64 161
c0 62 18 125 64 167c49 45 117 59 183 59s133 -14 182 -59c19 -18 34 -39 44 -62l-60 -26c-7 21 -19 40 -35 57c-34 35 -82 48 -131 48s-98 -13 -132 -48c-35 -36 -46 -86 -46 -136s11 -99 46 -135c34 -35 83 -48 132 -48c65 0 131 -11 182 -52c44 -36 65 -92 65 -149
s-21 -113 -65 -149c-20 -16 -42 -28 -66 -36c24 -9 46 -21 66 -38c45 -40 65 -100 65 -161c0 -62 -19 -125 -65 -167c-49 -45 -116 -59 -182 -59s-134 14 -183 59c-21 20 -37 43 -47 69zM322 459c-48 0 -97 -9 -132 -41c-33 -29 -46 -74 -46 -118s13 -89 46 -118
c35 -32 84 -41 132 -41s96 9 131 41c33 29 47 74 47 118s-14 89 -47 118c-35 32 -83 41 -131 41z" />
    <glyph glyph-name="guilsinglright" unicode="&#x203a;" horiz-adv-x="377" 
d="M315 292l-178 -292h-75l178 292l-178 293h75z" />
    <glyph glyph-name="Edieresis" unicode="&#xcb;" horiz-adv-x="637" 
d="M96 0v900h493v-42h-424v-387h390v-42h-390v-387h424v-42h-493zM219 1006c-28 0 -48 20 -48 48c0 13 4 27 13 36s22 12 35 12s27 -3 36 -12s12 -23 12 -36s-3 -26 -12 -35s-23 -13 -36 -13zM514 1054c0 -28 -20 -48 -48 -48c-13 0 -27 4 -36 13s-12 22 -12 35s3 27 12 36
s23 12 36 12s26 -3 35 -12s13 -23 13 -36z" />
    <glyph glyph-name="eng" unicode="&#x14b;" horiz-adv-x="651" 
d="M321 -210c14 -34 46 -58 86 -58c29 0 57 12 74 35c21 28 26 64 26 99v521c0 44 -8 89 -37 123c-26 30 -66 43 -106 43c-56 0 -113 -9 -157 -43c-37 -29 -56 -76 -56 -123v-387h-69v585h69v-77c8 12 18 23 30 33c50 42 117 54 183 54c57 0 116 -14 157 -54
c40 -40 54 -97 54 -154v-521c0 -48 -10 -96 -43 -130c-32 -33 -79 -46 -125 -46c-56 0 -110 21 -139 65z" />
    <glyph glyph-name="r" unicode="r" horiz-adv-x="404" 
d="M151 511c31 55 101 84 168 84c40 0 81 -6 117 -22l-20 -46c-28 18 -62 26 -97 26c-46 0 -93 -14 -124 -49c-33 -37 -44 -88 -44 -138v-366h-69v585h69v-74z" />
    <glyph glyph-name="u" unicode="u" horiz-adv-x="651" 
d="M569 585v-585h-69v69c-6 -9 -13 -17 -21 -25c-41 -40 -99 -54 -157 -54c-66 0 -133 12 -183 54c-44 38 -64 96 -64 154v387h69v-387c0 -46 13 -92 46 -123c35 -33 84 -43 132 -43s96 10 131 43c33 31 47 77 47 123v387h69z" />
    <glyph glyph-name="Odieresis" unicode="&#xd6;" horiz-adv-x="959" 
d="M356 1006c-28 0 -48 20 -48 48c0 13 4 27 13 36s22 12 35 12s27 -3 36 -12s12 -23 12 -36s-3 -26 -12 -35s-23 -13 -36 -13zM651 1054c0 -28 -20 -48 -48 -48c-13 0 -27 4 -36 13s-12 22 -12 35s3 27 12 36s23 12 36 12s26 -3 35 -12s13 -23 13 -36zM480 868
c-98 0 -196 -34 -259 -109c-71 -85 -90 -198 -90 -309s19 -224 90 -309c63 -75 161 -109 259 -109s195 34 258 109c71 85 90 198 90 309s-19 224 -90 309c-63 75 -160 109 -258 109zM480 910c116 0 231 -35 309 -120c83 -91 108 -217 108 -340s-25 -249 -108 -340
c-78 -85 -193 -120 -309 -120s-232 35 -310 120c-83 91 -108 217 -108 340s25 249 108 340c78 85 194 120 310 120z" />
    <glyph glyph-name="Zdotaccent" unicode="&#x17b;" horiz-adv-x="699" 
d="M34 858v42h630v-100l-593 -758h593v-42h-630v100l594 758h-594zM349 1006c-28 0 -48 20 -48 48c0 13 4 27 13 36s22 12 35 12s27 -3 36 -12s12 -23 12 -36s-3 -26 -12 -35s-23 -13 -36 -13z" />
    <glyph glyph-name="Igrave" unicode="&#xcc;" 
d="M110 0v900h68v-900h-68zM-12 1147h86l122 -180h-63z" />
    <glyph glyph-name="P" unicode="P" horiz-adv-x="699" 
d="M96 0v900h260c81 0 163 -17 223 -71c56 -51 79 -128 79 -204s-23 -152 -79 -203c-60 -54 -142 -72 -223 -72h-191v-350h-69zM165 858v-466h191c63 0 127 16 172 61s61 109 61 172s-16 127 -61 172s-109 61 -172 61h-191z" />
    <glyph glyph-name="tcaron" unicode="&#x165;" horiz-adv-x="370" 
d="M20 543v42h131v445h68v-445h131v-42h-131v-543h-68v543h-131zM487 1030h72l-123 -292h-53z" />
    <glyph glyph-name="Scedilla" unicode="&#x15e;" horiz-adv-x="712" 
d="M237 -226c17 -39 67 -53 116 -53c32 0 65 4 91 22c21 14 31 39 31 64s-10 50 -31 64c-26 18 -59 22 -91 22h-51l20 98c-69 4 -137 20 -190 64c-28 23 -47 53 -60 86l62 24c9 -30 25 -58 49 -79c46 -41 109 -54 170 -54c62 0 127 9 173 51c43 39 56 97 56 155
c0 83 -50 159 -129 180l-192 26c-107 29 -191 117 -191 226c0 68 17 137 69 181c58 49 138 59 214 59c75 0 152 -14 209 -63c23 -20 41 -43 53 -70l-64 -20c-9 22 -22 42 -40 59c-42 39 -100 52 -158 52s-119 -9 -162 -49c-40 -38 -53 -94 -53 -149c0 -85 54 -162 135 -184
l192 -26c105 -28 186 -115 186 -222c0 -71 -19 -142 -73 -187c-56 -47 -131 -59 -205 -61l-13 -63c44 -1 88 -7 124 -31c29 -20 47 -54 47 -89s-18 -68 -47 -88c-38 -26 -85 -32 -131 -32c-60 0 -127 14 -158 57z" />
    <glyph glyph-name="b" unicode="b" horiz-adv-x="706" 
d="M89 0v1030h69v-560c8 16 18 32 30 46c44 54 112 79 182 79c77 0 155 -22 208 -79c55 -60 73 -143 73 -224s-18 -163 -73 -223c-53 -57 -131 -79 -208 -79c-70 0 -138 25 -182 79c-12 14 -22 30 -30 46v-115h-69zM370 553c-60 0 -119 -22 -157 -68
c-43 -53 -55 -124 -55 -193s12 -139 55 -192c38 -46 97 -68 157 -68s119 22 157 68c43 53 55 123 55 192s-12 140 -55 193c-38 46 -97 68 -157 68z" />
    <glyph glyph-name="Yacute" unicode="&#xdd;" horiz-adv-x="712" 
d="M7 900h79l284 -500l285 500h51l-315 -553v-347h-69v347zM426 1147h86l-145 -180h-63z" />
    <glyph glyph-name="ecircumflex" unicode="&#xea;" horiz-adv-x="678" 
d="M603 117c-12 -23 -28 -44 -48 -62c-58 -50 -136 -65 -213 -65c-79 0 -158 22 -212 79c-56 59 -75 141 -75 223s19 165 75 224c54 57 133 79 212 79s159 -22 213 -79c56 -59 75 -142 75 -224v-20h-506c2 -62 17 -124 57 -172c39 -47 99 -68 161 -68c59 0 119 13 162 54
c18 17 32 38 41 60zM561 314c-2 62 -17 123 -57 171c-39 47 -100 68 -162 68s-122 -21 -161 -68c-40 -48 -55 -109 -57 -171h437zM342 841l-111 -129h-65l132 180h89l132 -180h-65z" />
    <glyph glyph-name="ocircumflex" unicode="&#xf4;" horiz-adv-x="685" 
d="M342 553c-62 0 -122 -21 -161 -68c-44 -53 -57 -124 -57 -193s13 -139 57 -192c39 -47 99 -68 161 -68s123 21 162 68c44 53 57 123 57 192s-13 140 -57 193c-39 47 -100 68 -162 68zM342 595c79 0 159 -22 213 -79c56 -59 75 -142 75 -224s-19 -164 -75 -223
c-54 -57 -134 -79 -213 -79s-158 22 -212 79c-56 59 -75 141 -75 223s19 165 75 224c54 57 133 79 212 79zM342 841l-111 -129h-65l132 180h89l132 -180h-65z" />
    <glyph glyph-name="eogonek" unicode="&#x119;" horiz-adv-x="678" 
d="M342 32c5 0 18 -1 21 2l1 -1c52 3 102 17 140 53c18 17 32 38 41 60l58 -29c-12 -23 -28 -44 -48 -62c-53 -46 -123 -63 -193 -65l-85 -88c-32 -32 -89 -48 -89 -95c0 -25 11 -50 32 -64c26 -18 59 -22 91 -22c42 0 88 10 109 40l30 -37c-36 -29 -90 -37 -139 -37
c-46 0 -94 6 -132 32c-29 20 -46 53 -46 88c0 70 90 81 136 128l53 55c-72 3 -142 27 -192 79c-56 59 -75 141 -75 223s19 165 75 224c54 57 133 79 212 79s159 -22 213 -79c56 -59 75 -142 75 -224v-20h-506c2 -62 17 -124 57 -172c39 -47 99 -68 161 -68zM561 314
c-2 62 -17 123 -57 171c-39 47 -100 68 -162 68s-122 -21 -161 -68c-40 -48 -55 -109 -57 -171h437z" />
    <glyph glyph-name="ffi" unicode="&#xfb03;" horiz-adv-x="952" 
d="M301 998c-61 0 -73 -87 -73 -145v-268h252v207c0 65 11 132 51 183c34 44 88 65 144 65s110 -21 144 -65c14 -18 25 -39 33 -60l-62 -22c-5 18 -12 35 -22 51c-20 33 -55 54 -93 54s-73 -21 -93 -54c-28 -45 -33 -99 -33 -152v-207h321v-585h-69v543h-252v-543h-69v543
h-252v-543h-69v543h-111v42h111v268c0 49 7 100 37 139c24 32 64 48 105 48c29 0 58 -8 81 -25l-33 -45c-11 17 -28 28 -48 28z" />
    <glyph glyph-name="plus" unicode="+" horiz-adv-x="671" 
d="M301 585h69v-271h246v-42h-246v-272h-69v272h-246v42h246v271z" />
    <glyph glyph-name="Eogonek" unicode="&#x118;" horiz-adv-x="637" 
d="M665 -276c-36 -29 -90 -37 -139 -37c-46 0 -93 6 -131 32c-29 20 -47 53 -47 88c0 70 90 81 136 128l62 65h-450v900h493v-42h-424v-387h390v-42h-390v-387h424v-42h-3l-94 -98c-32 -32 -89 -48 -89 -95c0 -25 11 -50 32 -64c26 -18 59 -22 91 -22c42 0 88 10 109 40z
" />
    <glyph glyph-name="R" unicode="R" horiz-adv-x="692" 
d="M386 385c-10 -1 -20 -1 -30 -1h-191v-384h-69v900h260c80 0 162 -15 223 -67c55 -47 79 -119 79 -191s-24 -144 -79 -191c-35 -30 -77 -47 -122 -57l228 -394h-82l-217 385zM165 858h191c63 0 126 -13 172 -56c44 -40 61 -100 61 -160s-17 -120 -61 -160
c-46 -43 -109 -56 -172 -56h-191v432z" />
    <glyph glyph-name="ecaron" unicode="&#x11b;" horiz-adv-x="678" 
d="M603 117c-12 -23 -28 -44 -48 -62c-58 -50 -136 -65 -213 -65c-79 0 -158 22 -212 79c-56 59 -75 141 -75 223s19 165 75 224c54 57 133 79 212 79s159 -22 213 -79c56 -59 75 -142 75 -224v-20h-506c2 -62 17 -124 57 -172c39 -47 99 -68 161 -68c59 0 119 13 162 54
c18 17 32 38 41 60zM454 892h65l-132 -180h-89l-132 180h65l111 -129zM561 314c-2 62 -17 123 -57 171c-39 47 -100 68 -162 68s-122 -21 -161 -68c-40 -48 -55 -109 -57 -171h437z" />
    <glyph glyph-name="V" unicode="V" horiz-adv-x="721" 
d="M11 900h73l290 -872l290 872h46l-300 -900h-100z" />
    <glyph glyph-name="AE" unicode="&#xc6;" horiz-adv-x="1103" 
d="M14 0l506 900h535v-42h-431v-387h407v-42h-407v-387h431v-42h-500v316h-310v9l-183 -325h-48zM264 358h291v518z" />
    <glyph glyph-name="bracketright" unicode="]" horiz-adv-x="384" 
d="M41 945h219v-1245h-219v42h150v1161h-150v42z" />
    <glyph glyph-name="H" unicode="H" horiz-adv-x="822" 
d="M96 0v900h69v-429h492v429h69v-900h-69v429h-492v-429h-69z" />
    <glyph glyph-name="exclam" unicode="!" horiz-adv-x="370" 
d="M151 228v672h69v-672h-69zM185 0c-28 0 -46 18 -46 46c0 13 3 26 12 35s21 12 34 12s25 -3 34 -12s12 -22 12 -35c0 -28 -18 -46 -46 -46z" />
    <glyph glyph-name="Aogonek" unicode="&#x104;" horiz-adv-x="760" 
d="M818 -276c-36 -29 -89 -37 -138 -37c-46 0 -94 6 -132 32c-29 20 -46 53 -46 88c0 70 90 81 136 128l62 65h-26l-108 307h-399l-108 -307h-45l316 900h100l317 -900h-8l-94 -98c-32 -32 -88 -48 -88 -95c0 -25 11 -50 32 -64c26 -18 59 -22 91 -22c42 0 87 10 108 40z
M551 349l-185 525l-185 -525h370z" />
    <glyph glyph-name="L" unicode="L" horiz-adv-x="630" 
d="M96 0v900h69v-858h424v-42h-493z" />
    <glyph glyph-name="comma" unicode="," horiz-adv-x="322" 
d="M152 117h79l-160 -293h-59z" />
    <glyph glyph-name="ydieresis" unicode="&#xff;" horiz-adv-x="575" 
d="M7 585h75l219 -492l219 492h49l-394 -885h-48l136 308zM164 751c-28 0 -48 20 -48 48c0 13 4 27 13 36s22 12 35 12s27 -3 36 -12s12 -23 12 -36s-3 -26 -12 -35s-23 -13 -36 -13zM411 847c13 0 27 -3 36 -12s12 -23 12 -36s-3 -26 -12 -35s-23 -13 -36 -13s-27 4 -36 13
s-12 22 -12 35s3 27 12 36s23 12 36 12z" />
    <glyph glyph-name="O" unicode="O" horiz-adv-x="959" 
d="M480 868c-98 0 -196 -34 -259 -109c-71 -85 -90 -198 -90 -309s19 -224 90 -309c63 -75 161 -109 259 -109s195 34 258 109c71 85 90 198 90 309s-19 224 -90 309c-63 75 -160 109 -258 109zM480 910c116 0 231 -35 309 -120c83 -91 108 -217 108 -340
s-25 -249 -108 -340c-78 -85 -193 -120 -309 -120s-232 35 -310 120c-83 91 -108 217 -108 340s25 249 108 340c78 85 194 120 310 120z" />
    <glyph glyph-name="bar" unicode="|" horiz-adv-x="274" 
d="M103 -45v990h68v-990h-68z" />
    <glyph glyph-name="underscore" unicode="_" horiz-adv-x="644" 
d="M41 -117v42h562v-42h-562z" />
    <glyph glyph-name="circumflex" unicode="&#x2c6;" 
d="M144 849l-111 -129h-65l132 180h88l132 -180h-65z" />
    <glyph glyph-name="Ecircumflex" unicode="&#xca;" horiz-adv-x="637" 
d="M96 0v900h493v-42h-424v-387h390v-42h-390v-387h424v-42h-493zM342 1096l-111 -129h-65l132 180h89l132 -180h-65z" />
    <glyph glyph-name="asterisk" unicode="*" horiz-adv-x="637" 
d="M284 900h69v-192l161 80v-76l-145 -72l145 -190h-81l-114 149l-115 -149h-81l145 190l-145 72v76l161 -80v192z" />
    <glyph glyph-name="dcaron" unicode="&#x10f;" horiz-adv-x="706" 
d="M616 0h-68v115c-8 -16 -18 -32 -30 -46c-44 -54 -112 -79 -182 -79c-77 0 -155 22 -208 79c-55 60 -73 142 -73 223s18 164 73 224c53 57 131 79 208 79c70 0 138 -25 182 -79c12 -14 22 -30 30 -46v560h68v-1030zM782 1030h71l-123 -292h-53zM336 553
c-60 0 -119 -22 -157 -68c-43 -53 -55 -124 -55 -193s12 -139 55 -192c38 -46 97 -68 157 -68s119 22 157 68c43 53 55 123 55 192s-12 140 -55 193c-38 46 -97 68 -157 68z" />
    <glyph glyph-name="Ecaron" unicode="&#x11a;" horiz-adv-x="637" 
d="M96 0v900h493v-42h-424v-387h390v-42h-390v-387h424v-42h-493zM454 1147h65l-132 -180h-89l-132 180h65l111 -128z" />
    <glyph glyph-name="Udieresis" unicode="&#xdc;" horiz-adv-x="814" 
d="M722 900v-634c0 -77 -24 -153 -82 -204c-63 -55 -149 -72 -233 -72s-170 17 -233 72c-58 51 -82 127 -82 204v634h69v-634c0 -64 18 -129 64 -173c48 -46 115 -61 182 -61s134 15 182 61c46 44 64 109 64 173v634h69zM332 1054c0 -28 -20 -48 -48 -48c-13 0 -27 4 -36 13
s-12 22 -12 35s3 27 12 36s23 12 36 12s26 -3 35 -12s13 -23 13 -36zM530 1006c-28 0 -48 20 -48 48c0 13 4 27 13 36s22 12 35 12s27 -3 36 -12s12 -23 12 -36s-3 -26 -12 -35s-23 -13 -36 -13z" />
    <glyph glyph-name="Zcaron" unicode="&#x17d;" horiz-adv-x="699" 
d="M34 858v42h630v-100l-593 -758h593v-42h-630v100l594 758h-594zM460 1147h66l-133 -180h-88l-132 180h65l111 -128z" />
    <glyph glyph-name="acute" unicode="&#xb4;" horiz-adv-x="274" 
d="M159 900h86l-145 -180h-63z" />
    <glyph glyph-name="uni1E9E" unicode="&#x1e9e;" horiz-adv-x="1329" 
d="M71 141l63 23c9 -30 24 -56 47 -78c43 -40 103 -54 162 -54c60 0 122 10 166 51c42 39 54 97 54 155c0 81 -46 157 -123 180l-185 26c-105 31 -185 119 -185 226c0 68 16 137 67 181c56 49 132 59 206 59c73 0 148 -15 203 -63c22 -20 39 -43 51 -70l-61 -26
c-8 25 -22 47 -41 65c-40 39 -96 52 -152 52s-114 -10 -154 -49c-39 -38 -51 -94 -51 -149c0 -84 51 -160 130 -184l184 -26c102 -31 180 -117 180 -222c0 -70 -18 -141 -71 -187c-59 -51 -140 -61 -218 -61c-77 0 -155 15 -213 65c-27 23 -47 53 -59 86zM706 141l63 23
c9 -30 24 -56 47 -78c43 -40 104 -54 163 -54c60 0 121 10 165 51c42 39 54 97 54 155c0 81 -46 157 -123 180l-185 26c-105 31 -185 119 -185 226c0 68 16 137 67 181c56 49 133 59 207 59c73 0 147 -15 202 -63c22 -20 39 -43 51 -70l-61 -26c-8 25 -22 47 -41 65
c-40 39 -95 52 -151 52s-115 -10 -155 -49c-39 -38 -50 -94 -50 -149c0 -84 50 -160 129 -184l185 -26c102 -31 179 -117 179 -222c0 -70 -18 -141 -71 -187c-59 -51 -139 -61 -217 -61c-77 0 -156 15 -214 65c-27 23 -47 53 -59 86z" />
    <glyph glyph-name="Uhungarumlaut" unicode="&#x170;" horiz-adv-x="814" 
d="M722 900v-634c0 -77 -24 -153 -82 -204c-63 -55 -149 -72 -233 -72s-170 17 -233 72c-58 51 -82 127 -82 204v634h69v-634c0 -64 18 -129 64 -173c48 -46 115 -61 182 -61s134 15 182 61c46 44 64 109 64 173v634h69zM253 967l112 180h84l-134 -180h-62zM571 1147h83
l-134 -180h-62z" />
    <glyph glyph-name="Atilde" unicode="&#xc3;" horiz-adv-x="760" 
d="M14 0l316 900h100l317 -900h-73l-108 307h-399l-108 -307h-45zM243 972h-55c0 34 9 69 34 93s62 33 97 33c52 0 71 -75 123 -75c21 0 41 7 55 23c15 18 20 41 20 65h55c0 -34 -9 -69 -34 -93s-61 -33 -96 -33c-52 0 -71 76 -123 76c-21 0 -42 -7 -56 -23
c-15 -18 -20 -42 -20 -66zM551 349l-185 525l-185 -525h370z" />
    <glyph glyph-name="Dcaron" unicode="&#x10e;" horiz-adv-x="863" 
d="M96 0v900h265c119 0 239 -32 321 -117c84 -88 113 -211 113 -333s-29 -245 -113 -333c-82 -85 -202 -117 -321 -117h-265zM481 1147h65l-132 -180h-88l-132 180h65l111 -128zM165 42h196c101 0 203 31 270 106c73 81 95 193 95 302s-22 221 -95 302
c-67 75 -169 106 -270 106h-196v-816z" />
    <glyph glyph-name="equal" unicode="=" horiz-adv-x="671" 
d="M55 388v42h561v-42h-561zM55 154v42h561v-42h-561z" />
    <glyph glyph-name="C" unicode="C" horiz-adv-x="925" 
d="M859 224c-17 -42 -39 -80 -70 -114c-78 -85 -193 -120 -309 -120s-232 35 -310 120c-83 91 -108 217 -108 340s25 249 108 340c78 85 194 120 310 120s231 -35 309 -120c31 -34 53 -72 70 -114l-61 -25c-14 39 -33 76 -60 108c-63 75 -160 109 -258 109
s-196 -34 -259 -109c-71 -85 -90 -198 -90 -309s19 -224 90 -309c63 -75 161 -109 259 -109s195 34 258 109c27 32 46 69 60 108z" />
    <glyph glyph-name="Eth" unicode="&#xd0;" horiz-adv-x="918" 
d="M416 900c119 0 239 -32 321 -117c84 -88 112 -211 112 -333s-28 -245 -112 -333c-82 -85 -202 -117 -321 -117h-265v429h-103v42h103v429h265zM220 42h196c101 0 203 31 270 106c73 81 95 193 95 302s-22 221 -95 302c-67 75 -169 106 -270 106h-196v-387h280v-42h-280
v-387z" />
    <glyph glyph-name="edieresis" unicode="&#xeb;" horiz-adv-x="678" 
d="M603 117c-12 -23 -28 -44 -48 -62c-58 -50 -136 -65 -213 -65c-79 0 -158 22 -212 79c-56 59 -75 141 -75 223s19 165 75 224c54 57 133 79 212 79s159 -22 213 -79c56 -59 75 -142 75 -224v-20h-506c2 -62 17 -124 57 -172c39 -47 99 -68 161 -68c59 0 119 13 162 54
c18 17 32 38 41 60zM219 751c-28 0 -48 20 -48 48c0 13 4 27 13 36s22 12 35 12s27 -3 36 -12s12 -23 12 -36s-3 -26 -12 -35s-23 -13 -36 -13zM514 799c0 -28 -20 -48 -48 -48c-13 0 -27 4 -36 13s-12 22 -12 35s3 27 12 36s23 12 36 12s26 -3 35 -12s13 -23 13 -36z
M561 314c-2 62 -17 123 -57 171c-39 47 -100 68 -162 68s-122 -21 -161 -68c-40 -48 -55 -109 -57 -171h437z" />
    <glyph glyph-name="ccaron" unicode="&#x10d;" horiz-adv-x="655" 
d="M607 152c-12 -31 -29 -59 -52 -83c-54 -57 -134 -79 -213 -79s-158 22 -212 79c-56 59 -75 141 -75 223s19 165 75 224c54 57 133 79 212 79s159 -22 213 -79c23 -24 40 -52 52 -83l-62 -23c-9 27 -22 52 -41 75c-39 47 -100 68 -162 68s-122 -21 -161 -68
c-44 -53 -57 -124 -57 -193s13 -139 57 -192c39 -47 99 -68 161 -68s123 21 162 68c19 23 32 48 41 75zM454 892h65l-132 -180h-89l-132 180h65l111 -129z" />
    <glyph glyph-name="cacute" unicode="&#x107;" horiz-adv-x="655" 
d="M607 152c-12 -31 -29 -59 -52 -83c-54 -57 -134 -79 -213 -79s-158 22 -212 79c-56 59 -75 141 -75 223s19 165 75 224c54 57 133 79 212 79s159 -22 213 -79c23 -24 40 -52 52 -83l-62 -23c-9 27 -22 52 -41 75c-39 47 -100 68 -162 68s-122 -21 -161 -68
c-44 -53 -57 -124 -57 -193s13 -139 57 -192c39 -47 99 -68 161 -68s123 21 162 68c19 23 32 48 41 75zM413 892h85l-144 -180h-64z" />
    <glyph glyph-name="odieresis" unicode="&#xf6;" horiz-adv-x="685" 
d="M219 751c-28 0 -48 20 -48 48c0 13 4 27 13 36s22 12 35 12s27 -3 36 -12s12 -23 12 -36s-3 -26 -12 -35s-23 -13 -36 -13zM514 799c0 -28 -20 -48 -48 -48c-13 0 -27 4 -36 13s-12 22 -12 35s3 27 12 36s23 12 36 12s26 -3 35 -12s13 -23 13 -36zM342 553
c-62 0 -122 -21 -161 -68c-44 -53 -57 -124 -57 -193s13 -139 57 -192c39 -47 99 -68 161 -68s123 21 162 68c44 53 57 123 57 192s-13 140 -57 193c-39 47 -100 68 -162 68zM342 595c79 0 159 -22 213 -79c56 -59 75 -142 75 -224s-19 -164 -75 -223
c-54 -57 -134 -79 -213 -79s-158 22 -212 79c-56 59 -75 141 -75 223s19 165 75 224c54 57 133 79 212 79z" />
    <glyph glyph-name="four" unicode="4" horiz-adv-x="678" 
d="M504 249v-249h-69v249h-380v100l349 551h100v-609h120v-42h-120zM435 291v540l-343 -540h343z" />
    <glyph glyph-name="adieresis" unicode="&#xe4;" horiz-adv-x="644" 
d="M562 0h-69v62c-7 -9 -14 -17 -23 -24c-45 -37 -104 -48 -162 -48c-66 0 -133 9 -187 48c-43 31 -66 83 -66 136s23 105 66 136c54 39 121 47 187 47c58 0 117 -10 162 -47c9 -7 16 -15 23 -24v71c0 53 -12 107 -48 145c-35 37 -86 51 -137 51s-101 -14 -136 -51
c-11 -12 -20 -24 -27 -38l-53 34c8 13 18 24 29 35c50 47 119 62 187 62s138 -15 188 -62c48 -45 66 -111 66 -176v-357zM185 847c13 0 27 -3 36 -12s12 -23 12 -36s-3 -26 -12 -35s-23 -13 -36 -13s-27 4 -36 13s-12 22 -12 35s3 27 12 36s23 12 36 12zM480 799
c0 -28 -20 -48 -48 -48c-13 0 -27 4 -36 13s-12 22 -12 35s3 27 12 36s23 12 36 12s26 -3 35 -12s13 -23 13 -36zM308 315c-48 0 -98 -7 -136 -37c-32 -25 -48 -63 -48 -104s16 -80 48 -105c38 -30 88 -37 136 -37s99 7 137 37c32 25 48 64 48 105s-16 79 -48 104
c-38 30 -89 37 -137 37z" />
    <glyph glyph-name="Ydieresis" unicode="&#x178;" horiz-adv-x="712" 
d="M7 900h79l284 -500l285 500h51l-315 -553v-347h-69v347zM281 1054c0 -28 -20 -48 -48 -48c-13 0 -27 4 -36 13s-12 22 -12 35s3 27 12 36s23 12 36 12s26 -3 35 -12s13 -23 13 -36zM480 1006c-29 0 -49 19 -49 48c0 13 4 27 13 36s23 12 36 12s26 -3 35 -12
s13 -23 13 -36c0 -28 -20 -48 -48 -48z" />
    <glyph glyph-name="Thorn" unicode="&#xde;" horiz-adv-x="712" 
d="M96 0v900h69v-159h191c80 0 161 -14 223 -64c54 -44 79 -112 79 -182s-25 -138 -79 -182c-62 -50 -143 -64 -223 -64h-191v-249h-69zM165 699v-408h191c62 0 125 12 172 53c43 37 61 94 61 151s-18 114 -61 151c-47 41 -110 53 -172 53h-191z" />
    <glyph glyph-name="cedilla" unicode="&#xb8;" horiz-adv-x="274" 
d="M21 -226c17 -39 67 -53 116 -53c32 0 65 4 91 22c21 14 32 39 32 64s-11 50 -32 64c-26 18 -59 22 -91 22h-51l25 124h52l-19 -90c44 -1 89 -7 125 -31c29 -20 46 -54 46 -89s-17 -68 -46 -88c-38 -26 -86 -32 -132 -32c-60 0 -127 14 -158 57z" />
    <glyph glyph-name="p" unicode="p" horiz-adv-x="699" 
d="M82 -300v885h69v-115c8 16 18 32 30 46c44 54 112 79 182 79c77 0 155 -22 208 -79c55 -60 73 -143 73 -224s-18 -163 -73 -223c-53 -57 -131 -79 -208 -79c-70 0 -138 25 -182 79c-12 14 -22 30 -30 46v-415h-69zM363 553c-60 0 -119 -22 -157 -68
c-43 -53 -55 -124 -55 -193s12 -139 55 -192c38 -46 97 -68 157 -68s119 22 157 68c43 53 55 123 55 192s-12 140 -55 193c-38 46 -97 68 -157 68z" />
    <glyph glyph-name="semicolon" unicode=";" horiz-adv-x="329" 
d="M145 117h79l-160 -293h-59zM185 585c28 0 46 -18 46 -46c0 -13 -3 -26 -12 -35s-21 -12 -34 -12s-26 3 -35 12s-12 22 -12 35s3 25 12 34s22 12 35 12z" />
    <glyph glyph-name="Idieresis" unicode="&#xcf;" 
d="M110 0v900h68v-900h-68zM69 1054c0 -28 -20 -48 -48 -48c-13 0 -27 4 -36 13s-12 22 -12 35s3 27 12 36s23 12 36 12s26 -3 35 -12s13 -23 13 -36zM267 1006c-28 0 -48 20 -48 48c0 13 4 27 13 36s22 12 35 12s27 -3 36 -12s12 -23 12 -36s-3 -26 -12 -35
s-23 -13 -36 -13z" />
    <glyph glyph-name="U" unicode="U" horiz-adv-x="814" 
d="M722 900v-634c0 -77 -24 -153 -82 -204c-63 -55 -149 -72 -233 -72s-170 17 -233 72c-58 51 -82 127 -82 204v634h69v-634c0 -64 18 -129 64 -173c48 -46 115 -61 182 -61s134 15 182 61c46 44 64 109 64 173v634h69z" />
    <glyph glyph-name="Agrave" unicode="&#xc0;" horiz-adv-x="760" 
d="M14 0l316 900h100l317 -900h-73l-108 307h-399l-108 -307h-45zM224 1147h86l122 -180h-63zM551 349l-185 525l-185 -525h370z" />
    <glyph glyph-name="dollar" unicode="$" horiz-adv-x="712" 
d="M72 141l62 24c9 -30 25 -58 49 -79c46 -41 109 -54 170 -54c62 0 127 9 173 51c43 39 56 97 56 155c0 83 -50 159 -129 180l-192 26c-107 29 -191 117 -191 226c0 68 17 137 69 181c50 42 114 55 179 58v171h69v-171c64 -4 126 -21 175 -62c23 -20 41 -43 53 -70l-61 -27
c-9 25 -23 48 -43 66c-42 39 -100 52 -158 52s-119 -9 -162 -49c-40 -38 -53 -94 -53 -149c0 -85 54 -162 135 -184l192 -26c105 -28 186 -115 186 -222c0 -71 -19 -142 -73 -187c-53 -44 -122 -57 -191 -60v-171h-69v171c-68 4 -134 21 -186 64c-28 23 -47 53 -60 86z" />
    <glyph glyph-name="ncaron" unicode="&#x148;" horiz-adv-x="651" 
d="M82 0v585h69v-77c8 12 18 23 30 33c50 42 117 54 183 54c57 0 116 -14 157 -54c40 -40 54 -97 54 -154v-387h-68v387c0 44 -8 89 -37 123c-26 30 -66 43 -106 43c-56 0 -113 -9 -157 -43c-37 -29 -56 -76 -56 -123v-387h-69zM440 892h65l-132 -180h-88l-133 180h66
l111 -129z" />
    <glyph glyph-name="Ograve" unicode="&#xd2;" horiz-adv-x="959" 
d="M324 1147h85l123 -180h-64zM480 868c-98 0 -196 -34 -259 -109c-71 -85 -90 -198 -90 -309s19 -224 90 -309c63 -75 161 -109 259 -109s195 34 258 109c71 85 90 198 90 309s-19 224 -90 309c-63 75 -160 109 -258 109zM480 910c116 0 231 -35 309 -120
c83 -91 108 -217 108 -340s-25 -249 -108 -340c-78 -85 -193 -120 -309 -120s-232 35 -310 120c-83 91 -108 217 -108 340s25 249 108 340c78 85 194 120 310 120z" />
    <glyph glyph-name="Icircumflex" unicode="&#xce;" 
d="M110 0v900h68v-900h-68zM144 1096l-111 -129h-65l132 180h88l132 -180h-65z" />
    <glyph glyph-name="e" unicode="e" horiz-adv-x="678" 
d="M603 117c-12 -23 -28 -44 -48 -62c-58 -50 -136 -65 -213 -65c-79 0 -158 22 -212 79c-56 59 -75 141 -75 223s19 165 75 224c54 57 133 79 212 79s159 -22 213 -79c56 -59 75 -142 75 -224v-20h-506c2 -62 17 -124 57 -172c39 -47 99 -68 161 -68c59 0 119 13 162 54
c18 17 32 38 41 60zM561 314c-2 62 -17 123 -57 171c-39 47 -100 68 -162 68s-122 -21 -161 -68c-40 -48 -55 -109 -57 -171h437z" />
    <glyph glyph-name="breve" unicode="&#x2d8;" 
d="M336 856c0 -87 -109 -110 -192 -110s-192 23 -192 110h55c0 -60 81 -72 137 -72s137 12 137 72h55z" />
    <glyph glyph-name="ampersand" unicode="&#x26;" horiz-adv-x="849" 
d="M657 789l-58 -31c-9 22 -22 42 -40 58c-43 39 -103 52 -162 52s-119 -13 -162 -52c-41 -37 -57 -91 -57 -146s16 -110 57 -147c43 -39 103 -52 162 -52h408v-42h-120v-429h-288c-76 0 -154 13 -213 61c-51 42 -74 108 -74 175s23 132 74 174c25 20 53 35 83 44
c-30 9 -58 23 -83 43c-51 41 -74 107 -74 173c0 68 22 134 74 177c58 49 137 63 213 63s155 -14 213 -63c20 -17 35 -36 47 -58zM616 429h-219c-58 0 -118 -11 -162 -50c-40 -36 -57 -89 -57 -143s17 -108 57 -144c44 -39 104 -50 162 -50h219v387z" />
    <glyph glyph-name="d" unicode="d" horiz-adv-x="706" 
d="M616 0h-68v115c-8 -16 -18 -32 -30 -46c-44 -54 -112 -79 -182 -79c-77 0 -155 22 -208 79c-55 60 -73 142 -73 223s18 164 73 224c53 57 131 79 208 79c70 0 138 -25 182 -79c12 -14 22 -30 30 -46v560h68v-1030zM336 553c-60 0 -119 -22 -157 -68
c-43 -53 -55 -124 -55 -193s12 -139 55 -192c38 -46 97 -68 157 -68s119 22 157 68c43 53 55 123 55 192s-12 140 -55 193c-38 46 -97 68 -157 68z" />
    <glyph glyph-name="dotlessi" unicode="&#x131;" horiz-adv-x="260" 
d="M96 0v585h69v-585h-69z" />
    <glyph glyph-name="Oslash" unicode="&#xd8;" horiz-adv-x="959" 
d="M480 868c-98 0 -196 -34 -259 -109c-71 -85 -90 -198 -90 -309c0 -95 14 -193 63 -272l533 593c-63 67 -154 97 -247 97zM480 910c105 0 210 -28 286 -97l77 87h82l-118 -131c69 -89 90 -205 90 -319c0 -123 -25 -249 -108 -340c-78 -85 -193 -120 -309 -120
c-105 0 -211 28 -287 97l-77 -87h-82l118 131c-69 89 -90 205 -90 319c0 123 25 249 108 340c78 85 194 120 310 120zM232 129c63 -67 155 -97 248 -97c98 0 195 34 258 109c71 85 90 198 90 309c0 95 -14 193 -63 272z" />
    <glyph glyph-name="Acircumflex" unicode="&#xc2;" horiz-adv-x="760" 
d="M14 0l316 900h100l317 -900h-73l-108 307h-399l-108 -307h-45zM551 349l-185 525l-185 -525h370zM380 1096l-111 -129h-65l132 180h88l132 -180h-65z" />
    <glyph glyph-name="w" unicode="w" horiz-adv-x="884" 
d="M7 585h75l242 -560l95 218l-149 342h76l110 -255l111 255h46l-134 -309l109 -251l242 560h47l-253 -585h-100l-82 189l-82 -189h-100z" />
    <glyph glyph-name="braceright" unicode="}" horiz-adv-x="418" 
d="M75 953c88 -46 172 -136 172 -246v-189c0 -40 5 -81 28 -114c18 -26 49 -40 81 -40v-68c-32 0 -63 -14 -81 -40c-23 -33 -28 -74 -28 -114v-189c0 -110 -84 -200 -172 -246l-23 44c67 42 126 116 126 202v189c0 72 19 148 70 188c-51 40 -70 116 -70 188v189
c0 86 -59 160 -126 202z" />
    <glyph glyph-name="nacute" unicode="&#x144;" horiz-adv-x="651" 
d="M82 0v585h69v-77c8 12 18 23 30 33c50 42 117 54 183 54c57 0 116 -14 157 -54c40 -40 54 -97 54 -154v-387h-68v387c0 44 -8 89 -37 123c-26 30 -66 43 -106 43c-56 0 -113 -9 -157 -43c-37 -29 -56 -76 -56 -123v-387h-69zM399 892h86l-145 -180h-64z" />
    <glyph glyph-name="lslash" unicode="&#x142;" horiz-adv-x="315" 
d="M123 580v450h69v-401l109 78v-75l-109 -79v-553h-69v504l-109 -78v75z" />
    <glyph glyph-name="Ccaron" unicode="&#x10c;" horiz-adv-x="925" 
d="M859 224c-17 -42 -39 -80 -70 -114c-78 -85 -193 -120 -309 -120s-232 35 -310 120c-83 91 -108 217 -108 340s25 249 108 340c78 85 194 120 310 120s231 -35 309 -120c31 -34 53 -72 70 -114l-61 -25c-14 39 -33 76 -60 108c-63 75 -160 109 -258 109
s-196 -34 -259 -109c-71 -85 -90 -198 -90 -309s19 -224 90 -309c63 -75 161 -109 259 -109s195 34 258 109c27 32 46 69 60 108zM591 1147h65l-132 -180h-89l-132 180h65l112 -128z" />
    <glyph glyph-name="Uacute" unicode="&#xda;" horiz-adv-x="814" 
d="M722 900v-634c0 -77 -24 -153 -82 -204c-63 -55 -149 -72 -233 -72s-170 17 -233 72c-58 51 -82 127 -82 204v634h69v-634c0 -64 18 -129 64 -173c48 -46 115 -61 182 -61s134 15 182 61c46 44 64 109 64 173v634h69zM477 1147h86l-145 -180h-63z" />
    <glyph glyph-name="v" unicode="v" horiz-adv-x="575" 
d="M7 585h74l220 -558l220 558h48l-231 -585h-100z" />
    <glyph glyph-name="E" unicode="E" horiz-adv-x="637" 
d="M96 0v900h493v-42h-424v-387h390v-42h-390v-387h424v-42h-493z" />
    <glyph glyph-name="B" unicode="B" horiz-adv-x="719" 
d="M96 0v900h281c69 0 140 -13 192 -58c47 -41 68 -103 68 -166c0 -61 -21 -122 -68 -161c-21 -18 -45 -29 -70 -38c31 -10 61 -26 86 -48c51 -45 73 -113 73 -182s-22 -138 -73 -183c-56 -49 -133 -64 -208 -64h-281zM165 858v-364h212c52 0 104 11 141 47
c36 34 50 85 50 135s-14 101 -50 135c-37 36 -89 47 -141 47h-212zM165 452v-410h212c57 0 116 13 157 53c40 39 55 96 55 152s-15 112 -55 151c-41 40 -100 54 -157 54h-212z" />
    <glyph glyph-name="s" unicode="s" horiz-adv-x="548" 
d="M52 98l63 24c6 -23 19 -43 38 -58c34 -26 78 -32 121 -32c44 0 89 5 124 31c29 22 40 58 40 94c0 53 -35 100 -87 108l-140 15c-83 13 -155 72 -155 153c0 47 15 94 53 122c47 35 107 40 165 40c57 0 115 -8 161 -42c19 -14 34 -33 44 -55l-61 -27c-6 20 -18 38 -34 51
c-31 25 -71 31 -110 31c-40 0 -82 -4 -113 -29c-27 -21 -36 -57 -36 -91c0 -55 39 -103 93 -111l140 -15c81 -13 149 -71 149 -150c0 -49 -17 -98 -57 -126c-50 -36 -114 -41 -176 -41c-61 0 -123 8 -172 43c-23 16 -40 39 -50 65z" />
    <glyph glyph-name="OE" unicode="&#x152;" horiz-adv-x="1151" 
d="M421 868c-85 0 -166 -39 -215 -109c-62 -89 -75 -200 -75 -309s13 -220 75 -309c49 -70 130 -109 215 -109s167 39 216 109c62 89 75 200 75 309s-13 220 -75 309c-49 70 -131 109 -216 109zM421 910c103 0 204 -39 267 -120c9 -12 17 -23 24 -35v145h391v-42h-322v-387
h287v-42h-287v-387h322v-42h-391v145c-7 -12 -15 -23 -24 -35c-63 -81 -164 -120 -267 -120s-203 39 -266 120c-75 95 -93 219 -93 340s18 245 93 340c63 81 163 120 266 120z" />
    <glyph glyph-name="caron" unicode="&#x2c7;" 
d="M255 900h65l-132 -180h-88l-132 180h65l111 -129z" />
    <glyph glyph-name="eth" unicode="&#xf0;" horiz-adv-x="719" 
d="M223 750v45l169 62c-49 64 -106 122 -171 173h91c53 -45 101 -96 142 -151l192 70v-44l-167 -61c111 -161 172 -353 172 -552c0 -82 -20 -165 -78 -223c-57 -58 -139 -79 -220 -79s-164 21 -221 79c-58 58 -77 141 -77 223s19 166 77 224c57 58 140 79 221 79
c80 0 158 -30 205 -91c-26 114 -74 221 -140 317zM582 292c0 70 -14 141 -60 193c-42 48 -105 68 -169 68s-128 -20 -170 -68c-46 -52 -59 -123 -59 -193s13 -140 59 -192c42 -48 106 -68 170 -68s127 20 169 68c46 52 60 122 60 192z" />
    <glyph glyph-name="Rcaron" unicode="&#x158;" horiz-adv-x="692" 
d="M386 385c-10 -1 -20 -1 -30 -1h-191v-384h-69v900h260c80 0 162 -15 223 -67c55 -47 79 -119 79 -191s-24 -144 -79 -191c-35 -30 -77 -47 -122 -57l228 -394h-82l-217 385zM426 1147h65l-132 -180h-88l-132 180h65l111 -128zM165 858h191c63 0 126 -13 172 -56
c44 -40 61 -100 61 -160s-17 -120 -61 -160c-46 -43 -109 -56 -172 -56h-191v432z" />
    <glyph glyph-name="zacute" unicode="&#x17a;" horiz-adv-x="507" 
d="M34 543v42h439v-100l-406 -443h406v-42h-439v100l405 443h-405zM324 892h85l-144 -180h-64z" />
    <glyph glyph-name="uring" unicode="&#x16f;" horiz-adv-x="651" 
d="M569 585v-585h-69v69c-6 -9 -13 -17 -21 -25c-41 -40 -99 -54 -157 -54c-66 0 -133 12 -183 54c-44 38 -64 96 -64 154v387h69v-387c0 -46 13 -92 46 -123c35 -33 84 -43 132 -43s96 10 131 43c33 31 47 77 47 123v387h69zM322 878c-19 0 -38 -6 -51 -20
c-14 -15 -19 -36 -19 -56s5 -41 19 -56c13 -14 32 -20 51 -20s38 6 51 20c14 15 18 36 18 56s-4 41 -18 56c-13 14 -32 20 -51 20zM322 906c31 0 62 -6 85 -27c21 -19 30 -48 30 -77s-9 -58 -30 -77c-23 -21 -54 -27 -85 -27s-62 6 -85 27c-21 19 -30 48 -30 77s9 58 30 77
c23 21 54 27 85 27z" />
    <glyph glyph-name="I" unicode="I" 
d="M110 0v900h68v-900h-68z" />
    <glyph glyph-name="ntilde" unicode="&#xf1;" horiz-adv-x="651" 
d="M82 0v585h69v-77c8 12 18 23 30 33c50 42 117 54 183 54c57 0 116 -14 157 -54c40 -40 54 -97 54 -154v-387h-68v387c0 44 -8 89 -37 123c-26 30 -66 43 -106 43c-56 0 -113 -9 -157 -43c-37 -29 -56 -76 -56 -123v-387h-69zM192 717h-55c0 34 9 69 34 93s61 33 96 33
c52 0 71 -76 123 -76c21 0 42 7 56 23c15 18 20 42 20 66h55c0 -34 -9 -69 -34 -93s-62 -33 -97 -33c-52 0 -71 75 -123 75c-21 0 -41 -7 -55 -23c-15 -18 -20 -41 -20 -65z" />
    <glyph glyph-name="Uring" unicode="&#x16e;" horiz-adv-x="814" 
d="M722 900v-634c0 -77 -24 -153 -82 -204c-63 -55 -149 -72 -233 -72s-170 17 -233 72c-58 51 -82 127 -82 204v634h69v-634c0 -64 18 -129 64 -173c48 -46 115 -61 182 -61s134 15 182 61c46 44 64 109 64 173v634h69zM407 1133c-19 0 -39 -5 -52 -19
c-14 -15 -18 -37 -18 -57s4 -41 18 -56c13 -14 33 -20 52 -20s38 6 51 20c14 15 18 36 18 56s-4 42 -18 57c-13 14 -32 19 -51 19zM407 1161c31 0 62 -6 85 -27c21 -19 30 -48 30 -77s-9 -57 -30 -76c-23 -21 -54 -28 -85 -28s-63 7 -86 28c-21 19 -30 47 -30 76s9 58 30 77
c23 21 55 27 86 27z" />
    <glyph glyph-name="tcedilla" unicode="&#x163;" horiz-adv-x="370" 
d="M69 -226c17 -39 67 -53 116 -53c32 0 65 4 91 22c21 14 32 39 32 64s-11 50 -32 64c-26 18 -59 22 -91 22h-51l22 107h-5v543h-131v42h131v445h68v-445h131v-42h-131v-543h-12l-15 -73c44 -1 89 -7 125 -31c29 -20 46 -54 46 -89s-17 -68 -46 -88
c-38 -26 -86 -32 -132 -32c-60 0 -127 14 -158 57z" />
    <glyph glyph-name="ucircumflex" unicode="&#xfb;" horiz-adv-x="651" 
d="M569 585v-585h-69v69c-6 -9 -13 -17 -21 -25c-41 -40 -99 -54 -157 -54c-66 0 -133 12 -183 54c-44 38 -64 96 -64 154v387h69v-387c0 -46 13 -92 46 -123c35 -33 84 -43 132 -43s96 10 131 43c33 31 47 77 47 123v387h69zM322 841l-111 -129h-65l132 180h88l132 -180
h-65z" />
    <glyph glyph-name="Egrave" unicode="&#xc8;" horiz-adv-x="637" 
d="M96 0v900h493v-42h-424v-387h390v-42h-390v-387h424v-42h-493zM187 1147h85l123 -180h-64z" />
    <glyph glyph-name="j" unicode="j" 
d="M-68 -209c16 -36 52 -59 95 -59c31 0 62 11 81 35c22 27 29 64 29 99v719h69v-719c0 -48 -13 -96 -47 -130s-84 -46 -132 -46c-59 0 -116 21 -147 65zM205 799c0 -28 -20 -48 -48 -48c-13 0 -27 4 -36 13s-12 22 -12 35s3 27 12 36s23 12 36 12s26 -3 35 -12
s13 -23 13 -36z" />
    <glyph glyph-name="Oacute" unicode="&#xd3;" horiz-adv-x="959" 
d="M550 1147h85l-144 -180h-64zM480 868c-98 0 -196 -34 -259 -109c-71 -85 -90 -198 -90 -309s19 -224 90 -309c63 -75 161 -109 259 -109s195 34 258 109c71 85 90 198 90 309s-19 224 -90 309c-63 75 -160 109 -258 109zM480 910c116 0 231 -35 309 -120
c83 -91 108 -217 108 -340s-25 -249 -108 -340c-78 -85 -193 -120 -309 -120s-232 35 -310 120c-83 91 -108 217 -108 340s25 249 108 340c78 85 194 120 310 120z" />
    <glyph glyph-name="ae" unicode="&#xe6;" horiz-adv-x="1014" 
d="M95 498c35 65 119 97 198 97c63 0 127 -17 171 -62c14 -15 26 -31 35 -49c7 11 14 22 23 32c46 55 117 79 189 79s142 -24 188 -79c52 -61 67 -144 67 -224v-20h-441c2 -61 13 -122 48 -172c32 -44 84 -68 138 -68c52 0 104 16 138 54c15 17 25 37 33 58l60 -27
c-10 -23 -25 -44 -43 -62c-49 -48 -119 -65 -188 -65c-72 0 -143 24 -189 79c-6 7 -11 14 -16 21c-10 -20 -24 -38 -42 -52c-48 -38 -110 -48 -171 -48s-123 10 -171 48c-41 32 -60 84 -60 136s19 104 60 136c48 38 110 47 171 47c63 0 127 -19 162 -66v66
c0 52 -9 105 -42 145c-29 35 -74 51 -120 51s-91 -16 -120 -51c-9 -11 -17 -23 -23 -36zM293 315c-43 0 -87 -9 -120 -37c-30 -26 -42 -64 -42 -104s12 -79 42 -105c33 -28 77 -37 120 -37s87 9 120 37c30 26 42 65 42 105s-12 78 -42 104c-33 28 -77 37 -120 37zM897 314
c-2 61 -13 121 -48 171c-32 44 -84 68 -138 68s-106 -24 -138 -68c-35 -50 -46 -110 -48 -171h372z" />
    <glyph glyph-name="c" unicode="c" horiz-adv-x="655" 
d="M607 152c-12 -31 -29 -59 -52 -83c-54 -57 -134 -79 -213 -79s-158 22 -212 79c-56 59 -75 141 -75 223s19 165 75 224c54 57 133 79 212 79s159 -22 213 -79c23 -24 40 -52 52 -83l-62 -23c-9 27 -22 52 -41 75c-39 47 -100 68 -162 68s-122 -21 -161 -68
c-44 -53 -57 -124 -57 -193s13 -139 57 -192c39 -47 99 -68 161 -68s123 21 162 68c19 23 32 48 41 75z" />
    <glyph glyph-name="Lcaron" unicode="&#x13d;" horiz-adv-x="630" 
d="M96 0v900h69v-858h424v-42h-493zM426 900h71l-123 -292h-53z" />
    <glyph glyph-name="D" unicode="D" horiz-adv-x="863" 
d="M96 0v900h265c119 0 239 -32 321 -117c84 -88 113 -211 113 -333s-29 -245 -113 -333c-82 -85 -202 -117 -321 -117h-265zM165 42h196c101 0 203 31 270 106c73 81 95 193 95 302s-22 221 -95 302c-67 75 -169 106 -270 106h-196v-816z" />
    <glyph glyph-name="icircumflex" unicode="&#xee;" horiz-adv-x="260" 
d="M96 0v585h69v-585h-69zM130 841l-111 -129h-65l132 180h88l132 -180h-65z" />
    <glyph glyph-name="gbreve" unicode="&#x11f;" horiz-adv-x="699" 
d="M616 585v-667c0 -65 -23 -128 -73 -169c-58 -47 -133 -59 -207 -59s-150 12 -208 59c-17 14 -31 31 -42 49l56 33c9 -19 21 -37 37 -51c42 -37 100 -48 157 -48s115 11 157 48c39 34 55 86 55 138v205c-8 -16 -18 -32 -30 -46c-44 -53 -113 -77 -182 -77
c-77 0 -155 21 -208 77c-55 58 -73 141 -73 221s18 162 73 220c53 56 131 77 208 77c69 0 138 -24 182 -77c12 -14 22 -30 30 -46v113h68zM527 848c0 -88 -108 -110 -191 -110s-192 23 -192 110h55c0 -60 81 -72 137 -72s136 12 136 72h55zM336 553c-60 0 -119 -20 -157 -66
c-43 -52 -55 -121 -55 -189s12 -138 55 -190c38 -46 97 -66 157 -66s119 20 157 66c43 52 55 122 55 190s-12 137 -55 189c-38 46 -97 66 -157 66z" />
    <glyph glyph-name="ij" unicode="&#x133;" horiz-adv-x="630" 
d="M123 585h69v-585h-69v585zM548 585v-719c0 -49 -15 -97 -51 -130c-39 -35 -92 -46 -144 -46c-63 0 -127 19 -162 65l50 38c5 -9 11 -18 18 -26c24 -25 59 -35 94 -35s69 10 93 35c25 26 33 63 33 99v719h69zM503 752c-28 0 -48 20 -48 48c0 13 4 27 13 36s22 12 35 12
s27 -3 36 -12s13 -23 13 -36c0 -29 -20 -48 -49 -48zM216 800c0 -28 -20 -48 -48 -48c-13 0 -27 4 -36 13s-12 22 -12 35s3 27 12 36s23 12 36 12s26 -3 35 -12s13 -23 13 -36z" />
    <glyph glyph-name="n" unicode="n" horiz-adv-x="651" 
d="M82 0v585h69v-77c8 12 18 23 30 33c50 42 117 54 183 54c57 0 116 -14 157 -54c40 -40 54 -97 54 -154v-387h-68v387c0 44 -8 89 -37 123c-26 30 -66 43 -106 43c-56 0 -113 -9 -157 -43c-37 -29 -56 -76 -56 -123v-387h-69z" />
    <glyph glyph-name="percent" unicode="%" horiz-adv-x="1123" 
d="M178 -45l684 990h83l-684 -990h-83zM293 858c-34 0 -66 -16 -85 -44c-25 -37 -30 -83 -30 -127s5 -90 30 -127c19 -28 51 -44 85 -44s66 16 85 44c25 37 29 83 29 127s-4 90 -29 127c-19 28 -51 44 -85 44zM293 900c51 0 103 -16 136 -55c37 -43 47 -101 47 -158
s-10 -115 -47 -158c-33 -39 -85 -55 -136 -55s-103 16 -136 55c-37 43 -47 101 -47 158s10 115 47 158c33 39 85 55 136 55zM830 384c-34 0 -65 -16 -84 -44c-25 -37 -30 -83 -30 -127s5 -90 30 -127c19 -28 50 -44 84 -44s66 16 85 44c25 37 30 83 30 127s-5 90 -30 127
c-19 28 -51 44 -85 44zM830 426c51 0 103 -16 136 -55c37 -43 48 -101 48 -158s-11 -115 -48 -158c-33 -39 -85 -55 -136 -55s-102 16 -135 55c-37 43 -48 101 -48 158s11 115 48 158c33 39 84 55 135 55z" />
    <glyph glyph-name="q" unicode="q" horiz-adv-x="699" 
d="M616 -300h-68v415c-8 -16 -18 -32 -30 -46c-44 -54 -112 -79 -182 -79c-77 0 -155 22 -208 79c-55 60 -73 142 -73 223s18 164 73 224c53 57 131 79 208 79c70 0 138 -25 182 -79c12 -14 22 -30 30 -46v115h68v-885zM336 553c-60 0 -119 -22 -157 -68
c-43 -53 -55 -124 -55 -193s12 -139 55 -192c38 -46 97 -68 157 -68s119 22 157 68c43 53 55 123 55 192s-12 140 -55 193c-38 46 -97 68 -157 68z" />
    <glyph glyph-name="Racute" unicode="&#x154;" horiz-adv-x="692" 
d="M386 385c-10 -1 -20 -1 -30 -1h-191v-384h-69v900h260c80 0 162 -15 223 -67c55 -47 79 -119 79 -191s-24 -144 -79 -191c-35 -30 -77 -47 -122 -57zM685 0h-82l-217 385zM385 1147h86l-145 -180h-63zM165 858h191c63 0 126 -13 172 -56c44 -40 61 -100 61 -160
s-17 -120 -61 -160c-46 -43 -109 -56 -172 -56h-191v432z" />
    <glyph glyph-name="x" unicode="x" horiz-adv-x="555" 
d="M24 585h83l178 -241l190 241h56l-219 -277l229 -308h-82l-189 254l-201 -254h-55l229 291z" />
    <glyph glyph-name="S" unicode="S" horiz-adv-x="712" 
d="M72 141l62 24c9 -30 25 -58 49 -79c46 -41 109 -54 170 -54c62 0 127 9 173 51c43 39 56 97 56 155c0 83 -50 159 -129 180l-192 26c-107 29 -191 117 -191 226c0 68 17 137 69 181c58 49 138 59 214 59c75 0 152 -14 209 -63c23 -20 41 -43 53 -70l-64 -20
c-9 22 -22 42 -40 59c-42 39 -100 52 -158 52s-119 -9 -162 -49c-40 -38 -53 -94 -53 -149c0 -85 54 -162 135 -184l192 -26c105 -28 186 -115 186 -222c0 -71 -19 -142 -73 -187c-62 -51 -145 -61 -225 -61c-79 0 -160 14 -221 65c-28 23 -47 53 -60 86z" />
    <glyph glyph-name="A" unicode="A" horiz-adv-x="760" 
d="M14 0l316 900h100l317 -900h-73l-108 307h-399l-108 -307h-45zM551 349l-185 525l-185 -525h370z" />
    <glyph glyph-name="Y" unicode="Y" horiz-adv-x="712" 
d="M7 900h79l284 -500l285 500h51l-315 -553v-347h-69v347z" />
    <glyph glyph-name="oslash" unicode="&#xf8;" horiz-adv-x="685" 
d="M342 553c-62 0 -122 -21 -161 -68c-44 -53 -57 -124 -57 -193c0 -54 7 -108 31 -155l337 361c-39 38 -95 55 -150 55zM342 595c67 0 136 -16 188 -56l43 46h85l-84 -90c42 -57 56 -131 56 -203c0 -82 -19 -164 -75 -223c-54 -57 -134 -79 -213 -79c-67 0 -135 16 -187 56
l-43 -46h-85l84 90c-42 57 -56 130 -56 202c0 82 19 165 75 224c54 57 133 79 212 79zM193 87c39 -38 94 -55 149 -55c62 0 123 21 162 68c44 53 57 123 57 192c0 54 -7 109 -31 156z" />
    <glyph glyph-name="dieresis" unicode="&#xa8;" 
d="M-28 807c0 29 20 48 49 48c28 0 48 -20 48 -48c0 -13 -4 -27 -13 -36s-22 -12 -35 -12s-27 3 -36 12s-13 23 -13 36zM219 807c0 28 20 48 48 48c13 0 27 -4 36 -13s12 -22 12 -35s-3 -27 -12 -36s-23 -12 -36 -12s-26 3 -35 12s-13 23 -13 36z" />
    <glyph glyph-name="o" unicode="o" horiz-adv-x="685" 
d="M342 553c-62 0 -122 -21 -161 -68c-44 -53 -57 -124 -57 -193s13 -139 57 -192c39 -47 99 -68 161 -68s123 21 162 68c44 53 57 123 57 192s-13 140 -57 193c-39 47 -100 68 -162 68zM342 595c79 0 159 -22 213 -79c56 -59 75 -142 75 -224s-19 -164 -75 -223
c-54 -57 -134 -79 -213 -79s-158 22 -212 79c-56 59 -75 141 -75 223s19 165 75 224c54 57 133 79 212 79z" />
    <glyph glyph-name="sacute" unicode="&#x15b;" horiz-adv-x="548" 
d="M52 98l63 24c6 -23 19 -43 38 -58c34 -26 78 -32 121 -32c44 0 89 5 124 31c29 22 40 58 40 94c0 53 -35 100 -87 108l-140 15c-83 13 -155 72 -155 153c0 47 15 94 53 122c47 35 107 40 165 40c57 0 115 -8 161 -42c19 -14 34 -33 44 -55l-61 -27c-6 20 -18 38 -34 51
c-31 25 -71 31 -110 31c-40 0 -82 -4 -113 -29c-27 -21 -36 -57 -36 -91c0 -55 39 -103 93 -111l140 -15c81 -13 149 -71 149 -150c0 -49 -17 -98 -57 -126c-50 -36 -114 -41 -176 -41c-61 0 -123 8 -172 43c-23 16 -40 39 -50 65zM344 892h86l-145 -180h-63z" />
    <glyph glyph-name="J" unicode="J" horiz-adv-x="603" 
d="M514 900v-677c0 -65 -21 -129 -69 -172c-53 -47 -125 -61 -195 -61s-142 14 -195 61c-20 17 -35 38 -46 61l60 28c8 -22 20 -41 37 -58c38 -37 91 -50 144 -50s106 13 144 50c37 36 51 89 51 141v677h69z" />
    <glyph glyph-name="dotaccent" unicode="&#x2d9;" horiz-adv-x="247" 
d="M75 807c0 28 20 48 48 48c13 0 27 -4 36 -13s12 -22 12 -35s-3 -27 -12 -36s-23 -12 -36 -12s-26 3 -35 12s-13 23 -13 36z" />
    <glyph glyph-name="y" unicode="y" horiz-adv-x="575" 
d="M7 585h75l219 -492l219 492h49l-394 -885h-48l136 308z" />
    <glyph glyph-name="yacute" unicode="&#xfd;" horiz-adv-x="575" 
d="M7 585h75l219 -492l219 492h49l-394 -885h-48l136 308zM358 892h86l-145 -180h-64z" />
    <glyph glyph-name="dotlessj" unicode="&#x237;" 
d="M-68 -209c16 -36 52 -59 95 -59c31 0 62 11 81 35c22 27 29 64 29 99v719h69v-719c0 -48 -13 -96 -47 -130s-84 -46 -132 -46c-59 0 -116 21 -147 65z" />
    <glyph glyph-name="braceleft" unicode="{" horiz-adv-x="418" 
d="M325 -283c-81 48 -154 134 -154 236v189c0 40 -5 81 -28 114c-18 26 -49 40 -81 40v68c32 0 63 14 81 40c23 33 28 74 28 114v189c0 102 73 188 154 236l25 -44c-61 -43 -110 -113 -110 -192v-189c0 -72 -19 -148 -70 -188c9 -7 17 -15 24 -24c37 -46 46 -105 46 -164
v-189c0 -79 49 -149 110 -192z" />
    <glyph glyph-name="numbersign" unicode="#" horiz-adv-x="740" 
d="M27 294v42h160l39 228h-171v42h179l50 294h69l-50 -294h187l51 294h69l-50 -294h152v-42h-160l-39 -228h172v-42h-179l-50 -294h-69l50 294h-188l-50 -294h-69l50 294h-153zM444 336l39 228h-187l-39 -228h187z" />
    <glyph glyph-name="quoteleft" unicode="&#x2018;" horiz-adv-x="349" 
d="M202 900h53l-104 -292h-72z" />
    <glyph glyph-name="ffl" unicode="&#xfb04;" horiz-adv-x="952" 
d="M608 998c-51 0 -68 -54 -68 -103v-310h126v-42h-126v-543h-69v543h-243v-543h-69v543h-111v42h111v310c0 39 9 79 36 107c26 27 63 38 101 38s76 -11 102 -38c27 -28 35 -68 35 -107h-69c0 49 -17 103 -68 103s-68 -54 -68 -103v-310h243v310c0 39 9 79 36 107
c26 27 63 38 101 38s75 -11 101 -38c27 -28 36 -68 36 -107h-69c0 49 -17 103 -68 103zM801 0v1030h69v-1030h-69z" />
    <glyph glyph-name="perthousandzero" horiz-adv-x="473" 
d="M236 384c-37 0 -71 -15 -93 -44c-27 -36 -33 -82 -33 -127s6 -91 33 -127c22 -29 56 -44 93 -44s72 15 94 44c27 36 33 82 33 127s-6 91 -33 127c-22 29 -57 44 -94 44zM236 426c54 0 109 -15 145 -55c39 -42 51 -101 51 -158s-12 -116 -51 -158
c-36 -40 -91 -55 -145 -55s-108 15 -144 55c-39 42 -51 101 -51 158s12 116 51 158c36 40 90 55 144 55z" />
    <glyph glyph-name="lcaron" unicode="&#x13e;" horiz-adv-x="233" 
d="M82 0v1030h69v-1030h-69zM317 1030h71l-123 -292h-53z" />
    <glyph glyph-name="three" unicode="3" horiz-adv-x="651" 
d="M66 111l59 29c8 -21 20 -40 36 -56c37 -38 91 -52 144 -52s107 14 144 52c38 38 51 92 51 146s-13 109 -51 147c-37 38 -91 52 -144 52h-58v42h58c53 0 107 14 144 52c38 38 51 93 51 147s-13 108 -51 146c-37 38 -91 52 -144 52s-107 -14 -144 -52
c-16 -16 -28 -35 -36 -56l-59 29c11 22 25 41 44 58c52 48 124 63 195 63s143 -15 195 -63c49 -45 69 -110 69 -177c0 -65 -21 -130 -69 -173c-23 -20 -50 -35 -78 -44c28 -10 55 -24 78 -45c49 -45 69 -111 69 -178s-20 -132 -69 -177c-52 -48 -124 -63 -195 -63
s-143 15 -195 63c-19 17 -33 36 -44 58z" />
    <glyph glyph-name="Ucircumflex" unicode="&#xdb;" horiz-adv-x="814" 
d="M722 900v-634c0 -77 -24 -153 -82 -204c-63 -55 -149 -72 -233 -72s-170 17 -233 72c-58 51 -82 127 -82 204v634h69v-634c0 -64 18 -129 64 -173c48 -46 115 -61 182 -61s134 15 182 61c46 44 64 109 64 173v634h69zM407 1096l-111 -129h-65l132 180h88l132 -180h-65z
" />
    <glyph glyph-name="ohungarumlaut" unicode="&#x151;" horiz-adv-x="685" 
d="M188 712l113 180h83l-134 -180h-62zM506 892h84l-134 -180h-62zM342 553c-62 0 -122 -21 -161 -68c-44 -53 -57 -124 -57 -193s13 -139 57 -192c39 -47 99 -68 161 -68s123 21 162 68c44 53 57 123 57 192s-13 140 -57 193c-39 47 -100 68 -162 68zM342 595
c79 0 159 -22 213 -79c56 -59 75 -142 75 -224s-19 -164 -75 -223c-54 -57 -134 -79 -213 -79s-158 22 -212 79c-56 59 -75 141 -75 223s19 165 75 224c54 57 133 79 212 79z" />
    <glyph glyph-name="bracketleft" unicode="[" horiz-adv-x="384" 
d="M123 -300v1245h219v-42h-150v-1161h150v-42h-219z" />
    <glyph glyph-name="oacute" unicode="&#xf3;" horiz-adv-x="685" 
d="M413 892h85l-144 -180h-64zM342 553c-62 0 -122 -21 -161 -68c-44 -53 -57 -124 -57 -193s13 -139 57 -192c39 -47 99 -68 161 -68s123 21 162 68c44 53 57 123 57 192s-13 140 -57 193c-39 47 -100 68 -162 68zM342 595c79 0 159 -22 213 -79c56 -59 75 -142 75 -224
s-19 -164 -75 -223c-54 -57 -134 -79 -213 -79s-158 22 -212 79c-56 59 -75 141 -75 223s19 165 75 224c54 57 133 79 212 79z" />
    <glyph glyph-name="nine" unicode="9" horiz-adv-x="671" 
d="M75 115l59 29c9 -22 21 -41 38 -58c41 -40 100 -54 157 -54s116 14 157 54c40 39 55 96 55 153v236c-8 -15 -18 -29 -30 -42c-46 -51 -114 -71 -182 -71c-76 0 -154 18 -208 71c-54 52 -73 128 -73 203s19 151 73 203c54 53 132 71 208 71s154 -18 208 -71
c54 -52 73 -128 73 -203v-397c0 -69 -21 -138 -73 -184c-56 -50 -133 -65 -208 -65s-152 15 -208 65c-19 17 -35 38 -46 60zM329 868c-59 0 -118 -17 -157 -60c-42 -46 -55 -110 -55 -172s13 -126 55 -172c39 -43 98 -60 157 -60s118 17 157 60c42 46 55 110 55 172
s-13 126 -55 172c-39 43 -98 60 -157 60z" />
    <glyph glyph-name="backslash" unicode="\" horiz-adv-x="514" 
d="M410 -45l-383 990h76l383 -990h-76z" />
    <glyph glyph-name="atilde" unicode="&#xe3;" horiz-adv-x="644" 
d="M562 0h-69v62c-7 -9 -14 -17 -23 -24c-45 -37 -104 -48 -162 -48c-66 0 -133 9 -187 48c-43 31 -66 83 -66 136s23 105 66 136c54 39 121 47 187 47c58 0 117 -10 162 -47c9 -7 16 -15 23 -24v71c0 53 -12 107 -48 145c-35 37 -86 51 -137 51s-101 -14 -136 -51
c-11 -12 -20 -24 -27 -38l-53 34c8 13 18 24 29 35c50 47 119 62 187 62s138 -15 188 -62c48 -45 66 -111 66 -176v-357zM172 717h-56c0 34 9 69 34 93s62 33 97 33c52 0 71 -76 123 -76c21 0 41 7 55 23c15 18 20 42 20 66h55c0 -34 -9 -69 -34 -93s-61 -33 -96 -33
c-52 0 -71 75 -123 75c-21 0 -42 -7 -56 -23c-15 -18 -19 -41 -19 -65zM308 315c-48 0 -98 -7 -136 -37c-32 -25 -48 -63 -48 -104s16 -80 48 -105c38 -30 88 -37 136 -37s99 7 137 37c32 25 48 64 48 105s-16 79 -48 104c-38 30 -89 37 -137 37z" />
    <glyph glyph-name="Aacute" unicode="&#xc1;" horiz-adv-x="760" 
d="M14 0l316 900h100l317 -900h-73l-108 307h-399l-108 -307h-45zM450 1147h86l-145 -180h-63zM551 349l-185 525l-185 -525h370z" />
    <glyph glyph-name="ccedilla" unicode="&#xe7;" horiz-adv-x="655" 
d="M227 -226c17 -39 66 -53 115 -53c32 0 65 4 91 22c21 14 32 39 32 64s-11 50 -32 64c-26 18 -59 22 -91 22h-51l21 98c-68 5 -135 28 -182 78c-56 59 -75 141 -75 223s19 165 75 224c54 57 133 79 212 79s159 -22 213 -79c23 -24 40 -52 52 -83l-62 -23
c-9 27 -22 52 -41 75c-39 47 -100 68 -162 68s-122 -21 -161 -68c-44 -53 -57 -124 -57 -193s13 -139 57 -192c39 -47 99 -68 161 -68s123 21 162 68c19 23 32 48 41 75l62 -23c-12 -31 -29 -59 -52 -83c-50 -52 -120 -76 -192 -79l-14 -63c44 -1 89 -7 125 -31
c29 -20 46 -54 46 -89s-17 -68 -46 -88c-38 -26 -86 -32 -132 -32c-60 0 -126 14 -157 57z" />
    <glyph glyph-name="Lslash" unicode="&#x141;" horiz-adv-x="644" 
d="M603 0h-493v333l-83 -54v72l83 54v495h68v-450l260 171v-72l-260 -170v-337h425v-42z" />
    <glyph glyph-name="Sacute" unicode="&#x15a;" horiz-adv-x="712" 
d="M72 141l62 24c9 -30 25 -58 49 -79c46 -41 109 -54 170 -54c62 0 127 9 173 51c43 39 56 97 56 155c0 83 -50 159 -129 180l-192 26c-107 29 -191 117 -191 226c0 68 17 137 69 181c58 49 138 59 214 59c75 0 152 -14 209 -63c23 -20 41 -43 53 -70l-64 -20
c-9 22 -22 42 -40 59c-42 39 -100 52 -158 52s-119 -9 -162 -49c-40 -38 -53 -94 -53 -149c0 -85 54 -162 135 -184l192 -26c105 -28 186 -115 186 -222c0 -71 -19 -142 -73 -187c-62 -51 -145 -61 -225 -61c-79 0 -160 14 -221 65c-28 23 -47 53 -60 86zM423 1147h86
l-145 -180h-64z" />
    <glyph glyph-name="visiblespace" unicode="&#x2420;" horiz-adv-x="548" 
d="M27 0h69v-99h356v99h69v-141h-494v141z" />
    <glyph glyph-name="aring" unicode="&#xe5;" horiz-adv-x="644" 
d="M562 0h-69v62c-7 -9 -14 -17 -23 -24c-45 -37 -104 -48 -162 -48c-66 0 -133 9 -187 48c-43 31 -66 83 -66 136s23 105 66 136c54 39 121 47 187 47c58 0 117 -10 162 -47c9 -7 16 -15 23 -24v71c0 53 -12 107 -48 145c-35 37 -86 51 -137 51s-101 -14 -136 -51
c-11 -12 -20 -24 -27 -38l-53 34c8 13 18 24 29 35c50 47 119 62 187 62s138 -15 188 -62c48 -45 66 -111 66 -176v-357zM308 315c-48 0 -98 -7 -136 -37c-32 -25 -48 -63 -48 -104s16 -80 48 -105c38 -30 88 -37 136 -37s99 7 137 37c32 25 48 64 48 105s-16 79 -48 104
c-38 30 -89 37 -137 37zM308 878c-19 0 -38 -6 -51 -20c-14 -15 -18 -36 -18 -56s4 -41 18 -56c13 -14 32 -20 51 -20s39 6 52 20c14 15 18 36 18 56s-4 41 -18 56c-13 14 -33 20 -52 20zM308 906c31 0 63 -6 86 -27c21 -19 30 -48 30 -77s-9 -58 -30 -77
c-23 -21 -55 -27 -86 -27s-62 6 -85 27c-21 19 -30 48 -30 77s9 58 30 77c23 21 54 27 85 27z" />
    <glyph glyph-name="m" unicode="m" horiz-adv-x="993" 
d="M82 0v585h69v-72c7 10 15 20 24 28c44 41 105 54 165 54c54 0 107 -15 144 -54c16 -17 27 -36 35 -57c9 21 22 41 39 57c44 41 105 54 165 54c54 0 107 -15 144 -54c38 -41 51 -98 51 -154v-387h-69v387c0 44 -7 88 -33 123c-22 29 -57 43 -93 43
c-50 0 -101 -10 -139 -43c-35 -30 -50 -77 -50 -123v-387h-68v387c0 44 -7 88 -33 123c-22 29 -57 43 -93 43c-50 0 -102 -10 -140 -43c-35 -30 -49 -77 -49 -123v-387h-69z" />
    <glyph glyph-name="ograve" unicode="&#xf2;" horiz-adv-x="685" 
d="M187 892h85l123 -180h-64zM342 553c-62 0 -122 -21 -161 -68c-44 -53 -57 -124 -57 -193s13 -139 57 -192c39 -47 99 -68 161 -68s123 21 162 68c44 53 57 123 57 192s-13 140 -57 193c-39 47 -100 68 -162 68zM342 595c79 0 159 -22 213 -79c56 -59 75 -142 75 -224
s-19 -164 -75 -223c-54 -57 -134 -79 -213 -79s-158 22 -212 79c-56 59 -75 141 -75 223s19 165 75 224c54 57 133 79 212 79z" />
    <glyph glyph-name="Cacute" unicode="&#x106;" horiz-adv-x="925" 
d="M859 224c-17 -42 -39 -80 -70 -114c-78 -85 -193 -120 -309 -120s-232 35 -310 120c-83 91 -108 217 -108 340s25 249 108 340c78 85 194 120 310 120s231 -35 309 -120c31 -34 53 -72 70 -114l-61 -25c-14 39 -33 76 -60 108c-63 75 -160 109 -258 109
s-196 -34 -259 -109c-71 -85 -90 -198 -90 -309s19 -224 90 -309c63 -75 161 -109 259 -109s195 34 258 109c27 32 46 69 60 108zM550 1147h85l-144 -180h-64z" />
    <glyph glyph-name="six" unicode="6" horiz-adv-x="671" 
d="M596 785l-58 -29c-9 22 -22 41 -39 58c-41 40 -100 54 -157 54s-115 -14 -156 -54c-40 -39 -55 -96 -55 -153v-236c8 15 17 29 29 42c46 51 114 71 182 71c76 0 154 -18 208 -71c54 -52 73 -128 73 -203s-19 -151 -73 -203c-54 -53 -132 -71 -208 -71s-153 18 -207 71
c-54 52 -73 128 -73 203v397c0 69 21 138 73 184c56 50 132 65 207 65s152 -15 208 -65c19 -17 35 -38 46 -60zM342 32c59 0 118 17 157 60c42 46 55 110 55 172s-13 126 -55 172c-39 43 -98 60 -157 60s-117 -17 -156 -60c-42 -46 -55 -110 -55 -172s13 -126 55 -172
c39 -43 97 -60 156 -60z" />
    <glyph glyph-name="egrave" unicode="&#xe8;" horiz-adv-x="678" 
d="M603 117c-12 -23 -28 -44 -48 -62c-58 -50 -136 -65 -213 -65c-79 0 -158 22 -212 79c-56 59 -75 141 -75 223s19 165 75 224c54 57 133 79 212 79s159 -22 213 -79c56 -59 75 -142 75 -224v-20h-506c2 -62 17 -124 57 -172c39 -47 99 -68 161 -68c59 0 119 13 162 54
c18 17 32 38 41 60zM187 892h85l123 -180h-64zM561 314c-2 62 -17 123 -57 171c-39 47 -100 68 -162 68s-122 -21 -161 -68c-40 -48 -55 -109 -57 -171h437z" />
    <glyph glyph-name="cwm" horiz-adv-x="0" 
d="M82 -0c0 -10 -8 -20 -20 -20c-11 0 -21 8 -21 20v900c0 10 9 20 21 20c11 0 20 -8 20 -20v-900z" />
    <glyph glyph-name="hyphen" unicode="-" horiz-adv-x="397" 
d="M55 272v42h287v-42h-287z" />
    <glyph glyph-name="scaron" unicode="&#x161;" horiz-adv-x="548" 
d="M52 98l63 24c6 -23 19 -43 38 -58c34 -26 78 -32 121 -32c44 0 89 5 124 31c29 22 40 58 40 94c0 53 -35 100 -87 108l-140 15c-83 13 -155 72 -155 153c0 47 15 94 53 122c47 35 107 40 165 40c57 0 115 -8 161 -42c19 -14 34 -33 44 -55l-61 -27c-6 20 -18 38 -34 51
c-31 25 -71 31 -110 31c-40 0 -82 -4 -113 -29c-27 -21 -36 -57 -36 -91c0 -55 39 -103 93 -111l140 -15c81 -13 149 -71 149 -150c0 -49 -17 -98 -57 -126c-50 -36 -114 -41 -176 -41c-61 0 -123 8 -172 43c-23 16 -40 39 -50 65zM385 892h65l-132 -180h-88l-132 180h65
l111 -129z" />
    <glyph glyph-name="Zacute" unicode="&#x179;" horiz-adv-x="699" 
d="M34 858v42h630v-100l-593 -758h593v-42h-630v100l594 758h-594zM419 1147h86l-144 -180h-64z" />
    <glyph glyph-name="igrave" unicode="&#xec;" horiz-adv-x="260" 
d="M96 0v585h69v-585h-69zM-26 892h86l122 -180h-63z" />
    <glyph glyph-name="acircumflex" unicode="&#xe2;" horiz-adv-x="644" 
d="M562 0h-69v62c-7 -9 -14 -17 -23 -24c-45 -37 -104 -48 -162 -48c-66 0 -133 9 -187 48c-43 31 -66 83 -66 136s23 105 66 136c54 39 121 47 187 47c58 0 117 -10 162 -47c9 -7 16 -15 23 -24v71c0 53 -12 107 -48 145c-35 37 -86 51 -137 51s-101 -14 -136 -51
c-11 -12 -20 -24 -27 -38l-53 34c8 13 18 24 29 35c50 47 119 62 187 62s138 -15 188 -62c48 -45 66 -111 66 -176v-357zM308 315c-48 0 -98 -7 -136 -37c-32 -25 -48 -63 -48 -104s16 -80 48 -105c38 -30 88 -37 136 -37s99 7 137 37c32 25 48 64 48 105s-16 79 -48 104
c-38 30 -89 37 -137 37zM308 841l-111 -129h-65l132 180h88l133 -180h-66z" />
    <glyph glyph-name="M" unicode="M" horiz-adv-x="1062" 
d="M96 0v900h100l333 -900h-48l-316 853v-853h-69zM533 0l-2 -4l-2 4h4zM533 0l333 900h100v-900h-69v853l-316 -853h-48z" />
    <glyph glyph-name="N" unicode="N" horiz-adv-x="856" 
d="M96 0v900h100l495 -861v861h69v-900h-100l-495 861v-861h-69z" />
    <glyph glyph-name="at" unicode="@" horiz-adv-x="918" 
d="M459 32c103 0 224 16 292 80l33 -47c-88 -63 -213 -75 -325 -75c-116 0 -231 35 -309 120c-83 91 -109 217 -109 340s26 249 109 340c78 85 193 120 309 120s231 -35 309 -120c83 -91 109 -217 109 -340c0 -57 -21 -113 -65 -149c-51 -41 -119 -52 -185 -52h-69v61
c-26 -39 -72 -61 -121 -61c-52 0 -105 14 -141 52c-37 39 -50 95 -50 149s13 110 50 149c36 38 89 52 141 52c49 0 95 -22 121 -61v61h69v-360c48 0 98 9 134 41c33 29 47 74 47 118c0 111 -20 224 -91 309c-63 75 -160 109 -258 109s-195 -34 -258 -109
c-71 -85 -91 -198 -91 -309s20 -224 91 -309c63 -75 160 -109 258 -109zM437 609c-35 0 -69 -13 -90 -41c-25 -33 -32 -76 -32 -118s7 -85 32 -118c21 -28 55 -41 90 -41s69 13 90 41c25 33 31 76 31 118s-6 85 -31 118c-21 28 -55 41 -90 41z" />
    <glyph glyph-name="idieresis" unicode="&#xef;" horiz-adv-x="260" 
d="M96 0v585h69v-585h-69zM55 799c0 -28 -20 -48 -48 -48c-13 0 -27 4 -36 13s-12 22 -12 35s3 27 12 36s23 12 36 12s26 -3 35 -12s13 -23 13 -36zM253 751c-28 0 -48 20 -48 48c0 13 4 27 13 36s22 12 35 12s27 -3 36 -12s13 -23 13 -36c0 -29 -20 -48 -49 -48z" />
    <glyph glyph-name="colon" unicode=":" 
d="M144 0c-28 0 -46 18 -46 46c0 13 3 26 12 35s21 12 34 12s25 -3 34 -12s12 -22 12 -35c0 -28 -18 -46 -46 -46zM98 539c0 28 18 46 46 46s46 -18 46 -46c0 -13 -3 -26 -12 -35s-21 -12 -34 -12s-25 3 -34 12s-12 22 -12 35z" />
    <glyph glyph-name="l" unicode="l" horiz-adv-x="233" 
d="M82 0v1030h69v-1030h-69z" />
    <glyph glyph-name="Iacute" unicode="&#xcd;" 
d="M110 0v900h68v-900h-68zM214 1147h86l-145 -180h-63z" />
    <glyph glyph-name="two" unicode="2" horiz-adv-x="651" 
d="M55 0v42l252 249c110 113 206 246 206 403c0 48 -14 97 -50 129c-39 35 -92 45 -144 45s-106 -10 -145 -45c-17 -15 -29 -34 -37 -55l-58 30c11 21 25 41 44 56c54 44 126 56 196 56s141 -12 195 -56c47 -39 68 -99 68 -160c0 -177 -127 -318 -251 -445l-210 -207h461
v-42h-527z" />
    <glyph glyph-name="zero" unicode="0" horiz-adv-x="712" 
d="M356 868c-68 0 -133 -32 -164 -93c-47 -93 -48 -214 -48 -325s1 -232 48 -325c31 -61 96 -93 164 -93s134 32 165 93c47 93 47 214 47 325s0 232 -47 325c-31 61 -97 93 -165 93zM356 910c86 0 173 -30 218 -103c63 -103 63 -234 63 -357s0 -254 -63 -357
c-45 -73 -132 -103 -218 -103s-173 30 -218 103c-63 103 -63 234 -63 357s0 254 63 357c45 73 132 103 218 103z" />
    <glyph glyph-name="g" unicode="g" horiz-adv-x="699" 
d="M616 585v-667c0 -65 -23 -128 -73 -169c-58 -47 -133 -59 -207 -59s-150 12 -208 59c-17 14 -31 31 -42 49l56 33c9 -19 21 -37 37 -51c42 -37 100 -48 157 -48s115 11 157 48c39 34 55 86 55 138v205c-8 -16 -18 -32 -30 -46c-44 -53 -113 -77 -182 -77
c-77 0 -155 21 -208 77c-55 58 -73 141 -73 221s18 162 73 220c53 56 131 77 208 77c69 0 138 -24 182 -77c12 -14 22 -30 30 -46v113h68zM336 553c-60 0 -119 -20 -157 -66c-43 -52 -55 -121 -55 -189s12 -138 55 -190c38 -46 97 -66 157 -66s119 20 157 66
c43 52 55 122 55 190s-12 137 -55 189c-38 46 -97 66 -157 66z" />
    <glyph glyph-name="Tcedilla" unicode="&#x162;" horiz-adv-x="630" 
d="M199 -226c17 -39 67 -53 116 -53c32 0 65 4 91 22c21 14 32 39 32 64s-11 50 -32 64c-26 18 -59 22 -91 22h-51l22 107h-5v858h-268v42h604v-42h-267v-858h-13l-15 -73c44 -1 89 -7 125 -31c29 -20 46 -54 46 -89s-17 -68 -46 -88c-38 -26 -86 -32 -132 -32
c-60 0 -127 14 -158 57z" />
    <glyph glyph-name="Tcaron" unicode="&#x164;" horiz-adv-x="630" 
d="M13 858v42h604v-42h-267v-858h-69v858h-268zM426 1147h65l-132 -180h-88l-132 180h65l111 -128z" />
    <glyph glyph-name="hungarumlaut" unicode="&#x2dd;" 
d="M-10 720l112 180h84l-135 -180h-61zM308 900h83l-134 -180h-62z" />
    <glyph glyph-name="Lacute" unicode="&#x139;" horiz-adv-x="630" 
d="M96 0v900h69v-858h424v-42h-493zM200 1147h86l-144 -180h-64z" />
    <glyph glyph-name="quotesinglbase" unicode="&#x201a;" horiz-adv-x="349" 
d="M193 112h71l-123 -292h-53z" />
    <glyph glyph-name="grave" unicode="`" horiz-adv-x="274" 
d="M29 900h86l122 -180h-63z" />
    <glyph glyph-name="otilde" unicode="&#xf5;" horiz-adv-x="685" 
d="M206 717h-55c0 34 9 69 34 93s61 33 96 33c52 0 71 -76 123 -76c21 0 42 7 56 23c15 18 19 42 19 66h55c0 -34 -9 -69 -34 -93s-61 -33 -96 -33c-52 0 -71 75 -123 75c-21 0 -42 -7 -56 -23c-15 -18 -19 -41 -19 -65zM342 553c-62 0 -122 -21 -161 -68
c-44 -53 -57 -124 -57 -193s13 -139 57 -192c39 -47 99 -68 161 -68s123 21 162 68c44 53 57 123 57 192s-13 140 -57 193c-39 47 -100 68 -162 68zM342 595c79 0 159 -22 213 -79c56 -59 75 -142 75 -224s-19 -164 -75 -223c-54 -57 -134 -79 -213 -79s-158 22 -212 79
c-56 59 -75 141 -75 223s19 165 75 224c54 57 133 79 212 79z" />
    <glyph glyph-name="uhungarumlaut" unicode="&#x171;" horiz-adv-x="651" 
d="M569 585v-585h-69v69c-6 -9 -13 -17 -21 -25c-41 -40 -99 -54 -157 -54c-66 0 -133 12 -183 54c-44 38 -64 96 -64 154v387h69v-387c0 -46 13 -92 46 -123c35 -33 84 -43 132 -43s96 10 131 43c33 31 47 77 47 123v387h69zM168 712l112 180h84l-134 -180h-62zM486 892h83
l-134 -180h-62z" />
    <glyph glyph-name="dcroat" unicode="&#x111;" horiz-adv-x="719" 
d="M616 0h-68v115c-8 -16 -18 -32 -30 -46c-44 -54 -112 -79 -182 -79c-77 0 -155 22 -208 79c-55 60 -73 142 -73 223s18 164 73 224c53 57 131 79 208 79c70 0 138 -25 182 -79c12 -14 22 -30 30 -46v333h-212v42h212v185h68v-185h90v-42h-90v-803zM336 553
c-60 0 -119 -22 -157 -68c-43 -53 -55 -124 -55 -193s12 -139 55 -192c38 -46 97 -68 157 -68s119 22 157 68c43 53 55 123 55 192s-12 140 -55 193c-38 46 -97 68 -157 68z" />
    <glyph glyph-name="K" unicode="K" horiz-adv-x="726" 
d="M96 900h69v-450c50 48 101 96 151 144l321 306h62l-336 -320l336 -580h-82l-307 529l-145 -138v-391h-69v900z" />
    <glyph glyph-name="zdotaccent" unicode="&#x17c;" horiz-adv-x="507" 
d="M34 543v42h439v-100l-406 -443h406v-42h-439v100l405 443h-405zM253 751c-28 0 -48 20 -48 48c0 13 4 27 13 36s22 12 35 12s27 -3 36 -12s13 -23 13 -36c0 -29 -20 -48 -49 -48z" />
    <glyph glyph-name="period" unicode="." 
d="M144 0c-28 0 -46 18 -46 46c0 13 3 26 12 35s21 12 34 12s25 -3 34 -12s12 -22 12 -35c0 -28 -18 -46 -46 -46z" />
    <glyph glyph-name="k" unicode="k" horiz-adv-x="596" 
d="M89 1030h69v-796l364 351h60l-249 -241l249 -344h-94l-211 291l-119 -116v-175h-69v1030z" />
    <glyph glyph-name="W" unicode="W" horiz-adv-x="1069" 
d="M14 900h73l301 -873l123 360l-177 513h73l141 -408l140 408h46l-163 -474l137 -399l301 873h46l-310 -900h-100l-111 320l-110 -320h-100z" />
    <glyph glyph-name="X" unicode="X" horiz-adv-x="678" 
d="M17 900h80l250 -391l261 391h53l-289 -432l299 -468h-79l-260 407l-273 -407h-52l299 448z" />
    <glyph glyph-name="ogonek" unicode="&#x2db;" horiz-adv-x="274" 
d="M276 -276c-36 -29 -90 -37 -139 -37c-46 0 -94 6 -132 32c-29 20 -46 53 -46 88c0 70 90 81 136 128l94 99l8 -34l-94 -98c-32 -32 -89 -48 -89 -95c0 -25 11 -50 32 -64c26 -18 59 -22 91 -22c42 0 88 10 109 40z" />
    <glyph glyph-name="agrave" unicode="&#xe0;" horiz-adv-x="644" 
d="M562 0h-69v62c-7 -9 -14 -17 -23 -24c-45 -37 -104 -48 -162 -48c-66 0 -133 9 -187 48c-43 31 -66 83 -66 136s23 105 66 136c54 39 121 47 187 47c58 0 117 -10 162 -47c9 -7 16 -15 23 -24v71c0 53 -12 107 -48 145c-35 37 -86 51 -137 51s-101 -14 -136 -51
c-11 -12 -20 -24 -27 -38l-53 34c8 13 18 24 29 35c50 47 119 62 187 62s138 -15 188 -62c48 -45 66 -111 66 -176v-357zM152 892h86l123 -180h-64zM308 315c-48 0 -98 -7 -136 -37c-32 -25 -48 -63 -48 -104s16 -80 48 -105c38 -30 88 -37 136 -37s99 7 137 37
c32 25 48 64 48 105s-16 79 -48 104c-38 30 -89 37 -137 37z" />
    <glyph glyph-name="aogonek" unicode="&#x105;" horiz-adv-x="644" 
d="M644 -276c-36 -29 -90 -37 -139 -37c-46 0 -94 6 -132 32c-29 20 -46 53 -46 88c0 70 90 81 136 128l62 65h-32v62c-7 -9 -14 -17 -23 -24c-45 -37 -104 -48 -162 -48c-66 0 -133 9 -187 48c-43 31 -66 83 -66 136s23 105 66 136c54 39 121 47 187 47
c58 0 117 -10 162 -47c9 -7 16 -15 23 -24v71c0 53 -12 107 -48 145c-35 37 -86 51 -137 51s-101 -14 -136 -51c-11 -12 -20 -24 -27 -38l-53 34c8 13 18 24 29 35c50 47 119 62 187 62s138 -15 188 -62c48 -45 66 -111 66 -176v-343l3 -14l-94 -98c-32 -32 -89 -48 -89 -95
c0 -25 11 -50 32 -64c26 -18 59 -22 91 -22c42 0 87 10 108 40zM308 315c-48 0 -98 -7 -136 -37c-32 -25 -48 -63 -48 -104s16 -80 48 -105c38 -30 88 -37 136 -37s99 7 137 37c32 25 48 64 48 105s-16 79 -48 104c-38 30 -89 37 -137 37z" />
    <glyph glyph-name="quotedbl" unicode="&#x22;" horiz-adv-x="404" 
d="M41 900h69v-292h-69v292zM363 900v-292h-69v292h69z" />
    <glyph glyph-name="t" unicode="t" horiz-adv-x="370" 
d="M20 543v42h131v445h68v-445h131v-42h-131v-543h-68v543h-131z" />
    <glyph glyph-name="question" unicode="?" horiz-adv-x="603" 
d="M253 228v243h35c49 0 98 15 131 52c35 40 46 94 46 147s-11 106 -46 146c-33 37 -82 52 -131 52s-99 -15 -132 -52c-15 -16 -25 -35 -32 -55l-60 28c10 22 23 41 41 58c48 47 116 63 183 63s134 -16 182 -63c47 -46 64 -111 64 -177s-17 -132 -64 -178
c-40 -39 -93 -57 -148 -62v-202h-69zM334 46c0 -28 -18 -46 -46 -46c-13 0 -26 3 -35 12s-12 21 -12 34s3 26 12 35s22 12 35 12s25 -3 34 -12s12 -22 12 -35z" />
    <glyph glyph-name="Adieresis" unicode="&#xc4;" horiz-adv-x="760" 
d="M14 0l316 900h100l317 -900h-73l-108 307h-399l-108 -307h-45zM305 1054c0 -28 -20 -48 -48 -48c-13 0 -27 4 -36 13s-12 22 -12 35s3 27 12 36s23 12 36 12s26 -3 35 -12s13 -23 13 -36zM503 1006c-28 0 -48 20 -48 48c0 13 4 27 13 36s22 12 35 12s27 -3 36 -12
s13 -23 13 -36c0 -29 -20 -48 -49 -48zM551 349l-185 525l-185 -525h370z" />
    <glyph glyph-name="five" unicode="5" horiz-adv-x="658" 
d="M142 129c31 -63 105 -97 180 -97c59 0 118 19 157 63c43 49 55 116 55 181c0 64 -11 130 -51 180c-34 43 -89 63 -144 63c-90 0 -170 -59 -195 -146h-68v527h492v-42h-424v-407c40 67 114 110 195 110c73 0 146 -21 195 -74c52 -56 69 -134 69 -211
c0 -78 -19 -157 -73 -212s-131 -74 -208 -74s-154 19 -208 74c-9 9 -17 19 -24 29z" />
    <glyph glyph-name="Aring" unicode="&#xc5;" horiz-adv-x="760" 
d="M14 0l316 900h100l317 -900h-73l-108 307h-399l-108 -307h-45zM551 349l-185 525l-185 -525h370zM380 1133c-19 0 -38 -5 -51 -19c-14 -15 -18 -37 -18 -57s4 -41 18 -56c13 -14 32 -20 51 -20s39 6 52 20c14 15 18 36 18 56s-4 42 -18 57c-13 14 -33 19 -52 19z
M380 1161c31 0 63 -6 86 -27c21 -19 30 -48 30 -77s-9 -57 -30 -76c-23 -21 -55 -28 -86 -28s-62 7 -85 28c-21 19 -30 47 -30 76s9 58 30 77c23 21 54 27 85 27z" />
    <glyph glyph-name="z" unicode="z" horiz-adv-x="507" 
d="M34 543v42h439v-100l-406 -443h406v-42h-439v100l405 443h-405z" />
    <glyph glyph-name="Ccedilla" unicode="&#xc7;" horiz-adv-x="925" 
d="M364 -226c17 -39 67 -53 116 -53c32 0 64 4 90 22c21 14 32 39 32 64s-11 50 -32 64c-26 18 -58 22 -90 22h-52l21 98c-105 6 -208 41 -279 119c-83 91 -108 217 -108 340s25 249 108 340c78 85 194 120 310 120s231 -35 309 -120c31 -34 53 -72 70 -114l-61 -25
c-14 39 -33 76 -60 108c-63 75 -160 109 -258 109s-196 -34 -259 -109c-71 -85 -90 -198 -90 -309s19 -224 90 -309c63 -75 161 -109 259 -109s195 34 258 109c27 32 46 69 60 108l61 -25c-17 -42 -39 -80 -70 -114c-73 -80 -180 -116 -289 -120l-14 -63
c44 -1 89 -7 125 -31c29 -20 46 -54 46 -89s-17 -68 -46 -88c-38 -26 -85 -32 -131 -32c-60 0 -127 14 -158 57z" />
    <glyph glyph-name="Idotaccent" unicode="&#x130;" 
d="M110 0v900h68v-900h-68zM144 1102c13 0 27 -3 36 -12s12 -23 12 -36s-3 -26 -12 -35s-23 -13 -36 -13s-27 4 -36 13s-12 22 -12 35s3 27 12 36s23 12 36 12z" />
    <glyph glyph-name="sterling" unicode="&#xa3;" horiz-adv-x="658" 
d="M61 429v42h110v188c0 67 12 135 55 186c38 45 98 65 158 65s119 -20 157 -65c15 -18 27 -39 35 -61l-61 -23c-6 19 -14 37 -25 53c-24 35 -64 54 -106 54s-83 -19 -107 -54c-31 -45 -37 -101 -37 -155v-188h274v-42h-274v-183c0 -62 -9 -126 -46 -176
c-8 -11 -18 -20 -28 -28h430v-42h-535v42c35 0 65 22 82 53c25 46 28 99 28 151v183h-110z" />
    <glyph glyph-name="eight" unicode="8" horiz-adv-x="685" 
d="M342 32c58 0 116 15 157 55s55 98 55 155s-14 115 -55 155s-99 54 -157 54s-115 -14 -156 -54s-55 -98 -55 -155s14 -115 55 -155s98 -55 156 -55zM342 -10c-75 0 -151 15 -207 65c-52 46 -73 117 -73 187s21 140 73 186c27 24 59 41 94 51c-22 9 -42 21 -60 38
c-44 42 -61 103 -61 164c0 63 16 125 61 169s109 60 173 60s129 -16 174 -60s61 -106 61 -169c0 -61 -17 -122 -61 -164c-18 -17 -38 -29 -60 -38c35 -10 67 -27 94 -51c52 -46 73 -116 73 -186s-21 -141 -73 -187c-56 -50 -133 -65 -208 -65zM342 493c46 0 93 15 123 49
c33 37 43 89 43 139s-10 101 -43 138c-30 34 -77 49 -123 49s-92 -15 -122 -49c-33 -37 -43 -88 -43 -138s10 -102 43 -139c30 -34 76 -49 122 -49z" />
    <glyph glyph-name="Ntilde" unicode="&#xd1;" horiz-adv-x="856" 
d="M96 0v900h100l495 -861v861h69v-900h-100l-495 861v-861h-69zM291 972h-55c0 34 9 69 34 93s61 33 96 33c52 0 72 -75 124 -75c21 0 41 7 55 23c15 18 20 41 20 65h55c0 -34 -9 -69 -34 -93s-61 -33 -96 -33c-52 0 -72 76 -124 76c-21 0 -41 -7 -55 -23
c-15 -18 -20 -42 -20 -66z" />
    <glyph glyph-name="Z" unicode="Z" horiz-adv-x="699" 
d="M34 858v42h630v-100l-593 -758h593v-42h-630v100l594 758h-594z" />
    <glyph glyph-name="T" unicode="T" horiz-adv-x="630" 
d="M13 858v42h604v-42h-267v-858h-69v858h-268z" />
    <glyph glyph-name="parenleft" unicode="(" horiz-adv-x="377" 
d="M305 -293c-53 37 -95 93 -129 152c-82 143 -114 307 -114 471s32 328 114 471c34 59 76 115 129 152l27 -37c-45 -36 -80 -90 -108 -145c-68 -136 -93 -289 -93 -441s25 -305 93 -441c28 -55 63 -109 108 -145z" />
    <glyph glyph-name="Eacute" unicode="&#xc9;" horiz-adv-x="637" 
d="M96 0v900h493v-42h-424v-387h390v-42h-390v-387h424v-42h-493zM413 1147h85l-144 -180h-64z" />
    <glyph glyph-name="zcaron" unicode="&#x17e;" horiz-adv-x="507" 
d="M34 543v42h439v-100l-406 -443h406v-42h-439v100l405 443h-405zM364 892h66l-132 -180h-89l-132 180h65l111 -129z" />
    <glyph glyph-name="IJ" unicode="&#x132;" horiz-adv-x="829" 
d="M740 900v-677c0 -64 -17 -128 -63 -172c-47 -45 -114 -61 -180 -61s-133 16 -180 61c-19 18 -33 38 -43 61l61 27c7 -21 17 -40 32 -57c32 -36 82 -50 130 -50s97 14 129 50c35 38 45 90 45 141v677h69zM110 0v900h68v-900h-68z" />
    <glyph glyph-name="guilsinglleft" unicode="&#x2039;" horiz-adv-x="377" 
d="M137 292l178 -292h-75l-178 292l178 293h75z" />
    <glyph glyph-name="quotedblbase" unicode="&#x201e;" horiz-adv-x="630" 
d="M114 -180l104 292h71l-122 -292h-53zM454 112h72l-123 -292h-53z" />
    <glyph glyph-name="abreve" unicode="&#x103;" horiz-adv-x="644" 
d="M562 0h-69v62c-7 -9 -14 -17 -23 -24c-45 -37 -104 -48 -162 -48c-66 0 -133 9 -187 48c-43 31 -66 83 -66 136s23 105 66 136c54 39 121 47 187 47c58 0 117 -10 162 -47c9 -7 16 -15 23 -24v71c0 53 -12 107 -48 145c-35 37 -86 51 -137 51s-101 -14 -136 -51
c-11 -12 -20 -24 -27 -38l-53 34c8 13 18 24 29 35c50 47 119 62 187 62s138 -15 188 -62c48 -45 66 -111 66 -176v-357zM500 848c0 -87 -109 -110 -192 -110s-192 23 -192 110h56c0 -60 80 -72 136 -72s137 12 137 72h55zM308 315c-48 0 -98 -7 -136 -37
c-32 -25 -48 -63 -48 -104s16 -80 48 -105c38 -30 88 -37 136 -37s99 7 137 37c32 25 48 64 48 105s-16 79 -48 104c-38 30 -89 37 -137 37z" />
    <glyph glyph-name="G" unicode="G" horiz-adv-x="980" 
d="M897 0h-69v184c-16 -36 -37 -68 -65 -96c-74 -73 -179 -98 -283 -98c-116 0 -232 35 -310 120c-83 91 -108 217 -108 340s25 249 108 340c78 85 194 120 310 120s231 -35 309 -120c27 -29 47 -62 63 -97l-59 -27c-13 33 -31 65 -55 93c-63 75 -160 109 -258 109
s-196 -34 -259 -109c-71 -85 -90 -198 -90 -309s19 -224 90 -309c63 -75 161 -109 259 -109c94 0 190 22 258 87c66 63 90 155 90 247v63h-348v42h417v-471z" />
    <glyph glyph-name="h" unicode="h" horiz-adv-x="623" 
d="M89 0v1030h69v-518c7 10 16 20 25 29c45 41 107 54 168 54c54 0 109 -15 146 -54c39 -41 51 -98 51 -154v-387h-69v387c0 44 -6 89 -33 123c-22 29 -58 43 -95 43c-51 0 -104 -10 -143 -43c-35 -30 -50 -77 -50 -123v-387h-69z" />
    <glyph glyph-name="aacute" unicode="&#xe1;" horiz-adv-x="644" 
d="M562 0h-69v62c-7 -9 -14 -17 -23 -24c-45 -37 -104 -48 -162 -48c-66 0 -133 9 -187 48c-43 31 -66 83 -66 136s23 105 66 136c54 39 121 47 187 47c58 0 117 -10 162 -47c9 -7 16 -15 23 -24v71c0 53 -12 107 -48 145c-35 37 -86 51 -137 51s-101 -14 -136 -51
c-11 -12 -20 -24 -27 -38l-53 34c8 13 18 24 29 35c50 47 119 62 187 62s138 -15 188 -62c48 -45 66 -111 66 -176v-357zM378 892h86l-145 -180h-63zM308 315c-48 0 -98 -7 -136 -37c-32 -25 -48 -63 -48 -104s16 -80 48 -105c38 -30 88 -37 136 -37s99 7 137 37
c32 25 48 64 48 105s-16 79 -48 104c-38 30 -89 37 -137 37z" />
    <glyph glyph-name="eacute" unicode="&#xe9;" horiz-adv-x="678" 
d="M603 117c-12 -23 -28 -44 -48 -62c-58 -50 -136 -65 -213 -65c-79 0 -158 22 -212 79c-56 59 -75 141 -75 223s19 165 75 224c54 57 133 79 212 79s159 -22 213 -79c56 -59 75 -142 75 -224v-20h-506c2 -62 17 -124 57 -172c39 -47 99 -68 161 -68c59 0 119 13 162 54
c18 17 32 38 41 60zM413 892h85l-144 -180h-64zM561 314c-2 62 -17 123 -57 171c-39 47 -100 68 -162 68s-122 -21 -161 -68c-40 -48 -55 -109 -57 -171h437z" />
    <glyph glyph-name="Scaron" unicode="&#x160;" horiz-adv-x="712" 
d="M72 141l62 24c9 -30 25 -58 49 -79c46 -41 109 -54 170 -54c62 0 127 9 173 51c43 39 56 97 56 155c0 83 -50 159 -129 180l-192 26c-107 29 -191 117 -191 226c0 68 17 137 69 181c58 49 138 59 214 59c75 0 152 -14 209 -63c23 -20 41 -43 53 -70l-64 -20
c-9 22 -22 42 -40 59c-42 39 -100 52 -158 52s-119 -9 -162 -49c-40 -38 -53 -94 -53 -149c0 -85 54 -162 135 -184l192 -26c105 -28 186 -115 186 -222c0 -71 -19 -142 -73 -187c-62 -51 -145 -61 -225 -61c-79 0 -160 14 -221 65c-28 23 -47 53 -60 86zM464 1147h65
l-132 -180h-88l-133 180h66l111 -128z" />
    <glyph glyph-name="greater" unicode="&#x3e;" horiz-adv-x="671" 
d="M539 292l-484 235v74l561 -271v-75l-561 -271v74z" />
    <glyph glyph-name="oe" unicode="&#x153;" horiz-adv-x="1082" 
d="M1010 117c-10 -23 -24 -44 -43 -62c-51 -49 -123 -65 -193 -65c-73 0 -146 24 -193 79c-13 16 -24 32 -33 50c-9 -18 -20 -34 -33 -50c-47 -55 -120 -79 -193 -79s-146 24 -193 79c-53 61 -67 142 -67 223s14 163 67 224c47 55 120 79 193 79s146 -24 193 -79
c13 -16 24 -32 33 -50c9 18 20 34 33 50c47 55 120 79 193 79s146 -24 193 -79c53 -61 67 -143 67 -224v-20h-451c2 -61 13 -123 49 -172c33 -45 87 -68 142 -68c53 0 106 15 142 54c16 17 26 37 34 58zM322 553c-55 0 -109 -23 -142 -68c-40 -55 -49 -125 -49 -193
s9 -137 49 -192c33 -45 87 -68 142 -68s109 23 142 68c40 55 50 124 50 192s-10 138 -50 193c-33 45 -87 68 -142 68zM965 314c-2 61 -13 122 -49 171c-33 45 -87 68 -142 68s-109 -23 -142 -68c-36 -49 -47 -110 -49 -171h382z" />
    <glyph glyph-name="Nacute" unicode="&#x143;" horiz-adv-x="856" 
d="M96 0v900h100l495 -861v861h69v-900h-100l-495 861v-861h-69zM498 1147h86l-145 -180h-63z" />
    <glyph glyph-name="lacute" unicode="&#x13a;" horiz-adv-x="233" 
d="M82 0v1030h69v-1030h-69zM199 1288h86l-145 -180h-63z" />
    <glyph glyph-name="less" unicode="&#x3c;" horiz-adv-x="671" 
d="M132 292l484 -234v-74l-561 271v75l561 271v-74z" />
    <glyph glyph-name="asciicircum" unicode="^" horiz-adv-x="740" 
d="M370 825l-242 -465h-78l281 540h78l280 -540h-77z" />
    <glyph glyph-name="seven" unicode="7" horiz-adv-x="651" 
d="M55 858v42h527v-100l-364 -800h-74l391 858h-480z" />
    <glyph glyph-name="Ocircumflex" unicode="&#xd4;" horiz-adv-x="959" 
d="M480 868c-98 0 -196 -34 -259 -109c-71 -85 -90 -198 -90 -309s19 -224 90 -309c63 -75 161 -109 259 -109s195 34 258 109c71 85 90 198 90 309s-19 224 -90 309c-63 75 -160 109 -258 109zM480 910c116 0 231 -35 309 -120c83 -91 108 -217 108 -340
s-25 -249 -108 -340c-78 -85 -193 -120 -309 -120s-232 35 -310 120c-83 91 -108 217 -108 340s25 249 108 340c78 85 194 120 310 120zM480 1096l-112 -129h-65l132 180h89l132 -180h-65z" />
    <glyph glyph-name="F" unicode="F" horiz-adv-x="616" 
d="M96 0v900h493v-42h-424v-387h390v-42h-390v-429h-69z" />
    <glyph glyph-name="tilde" unicode="&#x2dc;" 
d="M7 724h-55c0 34 9 70 34 94s61 32 96 32c52 0 72 -75 124 -75c21 0 41 7 55 23c15 18 20 42 20 66h55c0 -34 -9 -69 -34 -93s-61 -33 -96 -33c-52 0 -72 75 -124 75c-21 0 -41 -7 -55 -23c-15 -18 -20 -42 -20 -66z" />
    <glyph glyph-name="iacute" unicode="&#xed;" horiz-adv-x="260" 
d="M96 0v585h69v-585h-69zM200 892h86l-145 -180h-63z" />
    <glyph glyph-name="Otilde" unicode="&#xd5;" horiz-adv-x="959" 
d="M343 972h-55c0 34 9 69 34 93s61 33 96 33c52 0 71 -75 123 -75c21 0 42 7 56 23c15 18 19 41 19 65h55c0 -34 -9 -69 -34 -93s-61 -33 -96 -33c-52 0 -71 76 -123 76c-21 0 -42 -7 -56 -23c-15 -18 -19 -42 -19 -66zM480 868c-98 0 -196 -34 -259 -109
c-71 -85 -90 -198 -90 -309s19 -224 90 -309c63 -75 161 -109 259 -109s195 34 258 109c71 85 90 198 90 309s-19 224 -90 309c-63 75 -160 109 -258 109zM480 910c116 0 231 -35 309 -120c83 -91 108 -217 108 -340s-25 -249 -108 -340c-78 -85 -193 -120 -309 -120
s-232 35 -310 120c-83 91 -108 217 -108 340s25 249 108 340c78 85 194 120 310 120z" />
    <glyph glyph-name="parenright" unicode=")" horiz-adv-x="377" 
d="M71 -293l-26 37c45 36 80 90 108 145c68 136 93 289 93 441s-25 305 -93 441c-28 55 -63 109 -108 145l26 37c53 -37 96 -93 130 -152c82 -143 114 -307 114 -471s-32 -328 -114 -471c-34 -59 -77 -115 -130 -152z" />
    <glyph glyph-name="germandbls" unicode="&#xdf;" horiz-adv-x="678" 
d="M82 0v692c0 60 16 119 58 161c43 42 104 57 164 57s121 -15 164 -57c42 -42 58 -101 58 -161c0 -58 -10 -116 -47 -161c-9 -11 -20 -21 -32 -29c35 -11 68 -28 94 -54c51 -50 69 -123 69 -195c0 -69 -11 -140 -54 -195c-36 -46 -93 -68 -152 -68c-63 0 -124 20 -165 68
c-8 9 -15 19 -21 29l55 32c5 -10 10 -20 17 -30c26 -37 69 -57 114 -57c41 0 79 22 101 57c30 48 36 107 36 164c0 59 -12 120 -51 164c-36 41 -90 57 -144 57h-58v42h58c33 0 64 18 82 46c24 38 29 85 29 130c0 47 -9 95 -40 130c-28 32 -70 46 -113 46s-85 -14 -113 -46
c-31 -35 -40 -83 -40 -130v-692h-69z" />
    <glyph glyph-name="a" unicode="a" horiz-adv-x="644" 
d="M562 0h-69v62c-7 -9 -14 -17 -23 -24c-45 -37 -104 -48 -162 -48c-66 0 -133 9 -187 48c-43 31 -66 83 -66 136s23 105 66 136c54 39 121 47 187 47c58 0 117 -10 162 -47c9 -7 16 -15 23 -24v71c0 53 -12 107 -48 145c-35 37 -86 51 -137 51s-101 -14 -136 -51
c-11 -12 -20 -24 -27 -38l-53 34c8 13 18 24 29 35c50 47 119 62 187 62s138 -15 188 -62c48 -45 66 -111 66 -176v-357zM308 315c-48 0 -98 -7 -136 -37c-32 -25 -48 -63 -48 -104s16 -80 48 -105c38 -30 88 -37 136 -37s99 7 137 37c32 25 48 64 48 105s-16 79 -48 104
c-38 30 -89 37 -137 37z" />
    <glyph glyph-name="scedilla" unicode="&#x15f;" horiz-adv-x="548" 
d="M158 -226c17 -39 67 -53 116 -53c32 0 65 4 91 22c21 14 32 39 32 64s-11 50 -32 64c-26 18 -59 22 -91 22h-51l20 98c-51 3 -100 13 -141 42c-23 16 -40 39 -50 65l63 24c6 -23 19 -43 38 -58c34 -26 78 -32 121 -32c44 0 89 5 124 31c29 22 40 58 40 94
c0 53 -35 100 -87 108l-140 15c-83 13 -155 72 -155 153c0 47 15 94 53 122c47 35 107 40 165 40c57 0 115 -8 161 -42c19 -14 34 -33 44 -55l-61 -27c-6 20 -18 38 -34 51c-31 25 -71 31 -110 31c-40 0 -82 -4 -113 -29c-27 -21 -36 -57 -36 -91c0 -55 39 -103 93 -111
l140 -15c81 -13 149 -71 149 -150c0 -49 -17 -98 -57 -126c-45 -32 -101 -40 -156 -41l-13 -63c44 -1 89 -7 125 -31c29 -20 46 -54 46 -89s-17 -68 -46 -88c-38 -26 -86 -32 -132 -32c-60 0 -127 14 -158 57z" />
    <glyph glyph-name="ugrave" unicode="&#xf9;" horiz-adv-x="651" 
d="M569 585v-585h-69v69c-6 -9 -13 -17 -21 -25c-41 -40 -99 -54 -157 -54c-66 0 -133 12 -183 54c-44 38 -64 96 -64 154v387h69v-387c0 -46 13 -92 46 -123c35 -33 84 -43 132 -43s96 10 131 43c33 31 47 77 47 123v387h69zM166 892h86l122 -180h-63z" />
    <glyph glyph-name="uacute" unicode="&#xfa;" horiz-adv-x="651" 
d="M569 585v-585h-69v69c-6 -9 -13 -17 -21 -25c-41 -40 -99 -54 -157 -54c-66 0 -133 12 -183 54c-44 38 -64 96 -64 154v387h69v-387c0 -46 13 -92 46 -123c35 -33 84 -43 132 -43s96 10 131 43c33 31 47 77 47 123v387h69zM392 892h86l-145 -180h-63z" />
    <glyph glyph-name="Ncaron" unicode="&#x147;" horiz-adv-x="856" 
d="M96 0v900h100l495 -861v861h69v-900h-100l-495 861v-861h-69zM539 1147h65l-132 -180h-88l-132 180h65l111 -128z" />
    <glyph glyph-name="one" unicode="1" horiz-adv-x="466" 
d="M233 0v842l-178 -164v87l147 135h100v-900h-69z" />
    <glyph glyph-name="f" unicode="f" horiz-adv-x="404" 
d="M279 998c-43 0 -49 -63 -49 -103v-310h113v-42h-113v-543h-69v543h-113v42h113v310c0 38 7 77 31 107c21 26 53 38 87 38s67 -12 88 -38c24 -30 31 -69 31 -107h-69c0 40 -7 103 -50 103z" />
    <glyph glyph-name="Ugrave" unicode="&#xd9;" horiz-adv-x="814" 
d="M722 900v-634c0 -77 -24 -153 -82 -204c-63 -55 -149 -72 -233 -72s-170 17 -233 72c-58 51 -82 127 -82 204v634h69v-634c0 -64 18 -129 64 -173c48 -46 115 -61 182 -61s134 15 182 61c46 44 64 109 64 173v634h69zM251 1147h86l122 -180h-63z" />
    <glyph glyph-name="macron" unicode="&#xaf;" 
d="M-31 769v37h349v-37h-349z" />
    <glyph glyph-name="dash" horiz-adv-x="432" 
d="M55 272v42h322v-42h-322z" />
    <glyph glyph-name="thorn" unicode="&#xfe;" horiz-adv-x="699" 
d="M82 -300v1200h69v-430c8 16 18 32 30 46c44 54 112 79 182 79c77 0 155 -22 208 -79c55 -60 73 -143 73 -224s-18 -163 -73 -223c-53 -57 -131 -79 -208 -79c-70 0 -138 25 -182 79c-12 14 -22 30 -30 46v-415h-69zM363 553c-60 0 -119 -22 -157 -68
c-43 -53 -55 -124 -55 -193s12 -139 55 -192c38 -46 97 -68 157 -68s119 22 157 68c43 53 55 123 55 192s-12 140 -55 193c-38 46 -97 68 -157 68z" />
    <glyph glyph-name="space" unicode=" " horiz-adv-x="410" 
 />
    </font>
</defs>
</svg>
